<?xml version="1.0" encoding="UTF-8" standalone="no"?>
<svg width="100px" height="100px" viewBox="0 0 100 100" version="1.1" xmlns="http://www.w3.org/2000/svg" xmlns:xlink="http://www.w3.org/1999/xlink" xmlns:sketch="http://www.bohemiancoding.com/sketch/ns">
    <!-- Generator: Sketch 3.2.1 (9971) - http://www.bohemiancoding.com/sketch -->
    <title>Slice 2</title>
    <desc>Created with Sketch.</desc>
    <defs></defs>
    <g id="Page-1" stroke="none" stroke-width="1" fill="none" fill-rule="evenodd" sketch:type="MSPage">
        <path d="M100,50 C100,63.8 95.1133333,75.5866667 85.3466667,85.3533333 C75.58,95.1133333 63.8,100 50,100 C36.1933333,100 24.4133333,95.1133333 14.6466667,85.3533333 C4.88,75.5866667 0,63.8 0,50 C0,36.2 4.88,24.4133333 14.6466667,14.6466667 C24.4133333,4.88 36.1933333,0 50,0 C63.8,0 75.58,4.88 85.3466667,14.6466667 C95.1133333,24.4133333 100,36.2 100,50 L100,50 Z M87.8866667,50 C87.8866667,39.58 84.18,30.6333333 76.7533333,23.14 C69.3333333,15.66 60.4133333,11.9133333 50,11.9133333 C39.58,11.9133333 30.66,15.66 23.24,23.14 C15.82,30.6333333 12.1066667,39.58 12.1066667,50 C12.1066667,60.42 15.82,69.3333333 23.24,76.7533333 C30.66,84.18 39.58,87.8866667 50,87.8866667 C60.4133333,87.8866667 69.3333333,84.18 76.7533333,76.7533333 C84.18,69.3333333 87.8866667,60.42 87.8866667,50 L87.8866667,50 Z M53.12,49.8 L69.14,61.52 L61.9133333,71.0933333 L41.0133333,55.86 L41.0133333,28.1266667 L53.12,28.1266667 L53.12,49.8 L53.12,49.8 Z" id="Shape" fill="#394952" sketch:type="MSShapeGroup"></path>
    </g>
</svg>