<?xml version="1.0" encoding="UTF-8" standalone="no"?>
<svg width="100px" height="100px" viewBox="0 0 100 100" version="1.1" xmlns="http://www.w3.org/2000/svg" xmlns:xlink="http://www.w3.org/1999/xlink" xmlns:sketch="http://www.bohemiancoding.com/sketch/ns">
    <!-- Generator: Sketch 3.2.1 (9971) - http://www.bohemiancoding.com/sketch -->
    <title>Slice 14</title>
    <desc>Created with Sketch.</desc>
    <defs></defs>
    <g id="Page-1" stroke="none" stroke-width="1" fill="none" fill-rule="evenodd" sketch:type="MSPage">
        <path d="M52.4428571,77.8333333 C52.247619,76.9857143 52.052381,76.2714286 51.8571429,75.6857143 C51.6619048,75.1 51.3,74.4142857 50.7809524,73.6333333 C50.2571429,72.852381 49.8333333,72.2333333 49.5095238,71.7761905 C49.1857143,71.3238095 48.6619048,70.7380952 47.947619,70.0190476 C47.2333333,69.3047619 46.6809524,68.7857143 46.2904762,68.4571429 C45.9,68.1333333 45.247619,67.647619 44.3380952,66.9904762 C43.4238095,66.3428571 42.8047619,65.9190476 42.4809524,65.7238095 C42.152381,65.5285714 41.4714286,65.0714286 40.4285714,64.3571429 C39.3857143,63.6428571 38.8,63.2190476 38.6714286,63.0857143 C38.0190476,62.9571429 37.0428571,62.8904762 35.7428571,62.8904762 C29.3619048,62.8904762 23.6619048,64.0952381 18.652381,66.5047619 C13.6380952,68.9142857 11.1333333,72.9190476 11.1333333,78.5142857 C11.1333333,83.7238095 13.5047619,87.6952381 18.2619048,90.4285714 C23.0142857,93.1666667 28.1904762,94.5333333 33.7904762,94.5333333 C38.8666667,94.5333333 43.2904762,93.3619048 47.0714286,91.0142857 C50.847619,88.6714286 52.7333333,85.0904762 52.7333333,80.2761905 C52.7333333,79.4904762 52.6380952,78.6809524 52.4428571,77.8333333 L52.4428571,77.8333333 Z M41.2095238,12.3047619 C38.347619,6.96666667 34.4380952,4.2952381 29.4904762,4.2952381 C25.7142857,4.2952381 22.8190476,5.66666667 20.8,8.4 C18.7809524,11.1333333 17.7714286,14.452381 17.7714286,18.3619048 C17.7714286,23.7 19.3,28.9380952 22.3619048,34.0809524 C25.4190476,39.2285714 29.4238095,41.7952381 34.3761905,41.7952381 C41.7952381,41.7952381 45.5095238,37.3714286 45.5095238,28.5142857 C45.5095238,23.047619 44.0714286,17.647619 41.2095238,12.3047619 L41.2095238,12.3047619 Z M63.8666667,0 L55.6619048,4.68571429 L47.6571429,4.68571429 C50.5190476,6.51428571 52.7333333,9.05238095 54.2952381,12.3047619 C55.8571429,15.5619048 56.6428571,18.947619 56.6428571,22.4619048 C56.6428571,26.1095238 55.9238095,29.2952381 54.4904762,32.0333333 C53.0571429,34.7666667 51.5285714,36.7857143 49.9,38.0857143 C48.2714286,39.3904762 46.7428571,40.852381 45.3142857,42.4809524 C43.8761905,44.1095238 43.1619048,45.7714286 43.1619048,47.4619048 C43.1619048,49.1571429 44.1047619,50.9142857 45.9952381,52.7333333 C47.8809524,54.5619048 49.9333333,56.2857143 52.147619,57.9095238 C54.3619048,59.5380952 56.4095238,61.8857143 58.3,64.9428571 C60.1857143,68.0047619 61.1333333,71.4190476 61.1333333,75.1952381 C61.1333333,81.5761905 58.3333333,87.2428571 52.7333333,92.1857143 C46.4857143,97.3952381 38.0857143,100 27.5380952,100 C20.6380952,100 14.3238095,98.4380952 8.5952381,95.3142857 C2.86190476,92.1857143 0,87.5 0,81.252381 C0,78.647619 0.780952381,75.9761905 2.34285714,73.2428571 C6.50952381,64.5190476 17.3809524,59.8333333 34.9619048,59.1809524 C32.4857143,55.9285714 31.252381,52.9952381 31.252381,50.3904762 C31.252381,49.0904762 31.7047619,47.3333333 32.6190476,45.1190476 C30.5333333,45.3809524 29.1,45.5095238 28.3190476,45.5095238 C22.3285714,45.5095238 17.2190476,43.5571429 12.9904762,39.647619 C8.75714286,35.7428571 6.64285714,30.7952381 6.64285714,24.8047619 C6.64285714,19.0761905 8.52857143,14 12.3047619,9.57142857 C16.0809524,5.14761905 20.7666667,2.34285714 26.3666667,1.17142857 C30.1428571,0.39047619 33.852381,0 37.5,0 L63.8666667,0 L63.8666667,0 Z M100,23.047619 L84.5714286,23.047619 L84.5714286,38.4761905 L76.952381,38.4761905 L76.952381,23.047619 L61.5238095,23.047619 L61.5238095,15.4285714 L76.952381,15.4285714 L76.952381,0 L84.5714286,0 L84.5714286,15.4285714 L100,15.4285714 L100,23.047619 L100,23.047619 Z" id="Shape" fill="#000000" sketch:type="MSShapeGroup"></path>
    </g>
</svg>