<?xml version="1.0" encoding="UTF-8" standalone="no"?>
<svg width="100px" height="100px" viewBox="0 0 100 100" version="1.1" xmlns="http://www.w3.org/2000/svg" xmlns:xlink="http://www.w3.org/1999/xlink" xmlns:sketch="http://www.bohemiancoding.com/sketch/ns">
    <!-- Generator: Sketch 3.2.1 (9971) - http://www.bohemiancoding.com/sketch -->
    <title>Slice 4</title>
    <desc>Created with Sketch.</desc>
    <defs></defs>
    <g id="Page-1" stroke="none" stroke-width="1" fill="none" fill-rule="evenodd" sketch:type="MSPage">
        <path d="M92.0859455,100 L69.227884,77.1920445 C61.3191877,83.1854149 52.6014038,86.1847733 43.0745325,86.1847733 C31.211488,86.1847733 21.063066,81.9824636 12.6399829,73.5724979 C4.21154155,65.1678785 0,54.9721985 0,42.9801112 C0,31.143071 4.21154155,21.0168948 12.6399829,12.6122754 C21.063066,4.20765612 31.211488,0 43.0745325,0 C54.9429352,0 65.085999,4.20765612 73.5144403,12.6122754 C81.9375234,21.0168948 86.1544232,31.143071 86.1544232,42.9801112 C86.1544232,52.780154 83.1484756,61.4788281 77.1419386,69.0761334 L100,92.1032934 L92.0859455,100 L92.0859455,100 Z M74.9450785,42.9801112 C74.9450785,34.2119333 71.8266088,26.7215569 65.605744,20.5036356 C59.3741628,14.2910607 51.8673311,11.1847733 43.0745325,11.1847733 C34.2870921,11.1847733 26.7749022,14.2910607 20.5486792,20.5036356 C14.3224562,26.7215569 11.2093447,34.2119333 11.2093447,42.9801112 C11.2093447,51.7536356 14.3224562,59.2867836 20.5486792,65.5688623 C26.7749022,71.8562874 34.2870921,75 43.0745325,75 C51.8673311,75 59.3741628,71.8562874 65.605744,65.5688623 C71.8266088,59.2867836 74.9450785,51.7536356 74.9450785,42.9801112 L74.9450785,42.9801112 Z" id="Shape" fill="#394952" sketch:type="MSShapeGroup"></path>
    </g>
</svg>