<?xml version="1.0" encoding="UTF-8" standalone="no"?>
<svg width="95px" height="100px" viewBox="0 0 95 100" version="1.1" xmlns="http://www.w3.org/2000/svg" xmlns:xlink="http://www.w3.org/1999/xlink" xmlns:sketch="http://www.bohemiancoding.com/sketch/ns">
    <!-- Generator: Sketch 3.2.1 (9971) - http://www.bohemiancoding.com/sketch -->
    <title>Slice 3</title>
    <desc>Created with Sketch.</desc>
    <defs></defs>
    <g id="Page-1" stroke="none" stroke-width="1" fill="none" fill-rule="evenodd" sketch:type="MSPage">
        <path d="M90.882806,76.1523283 C93.623647,78.8239937 95,82.0955012 95,85.9707972 C95,89.8460931 93.6592423,93.1531176 90.9816819,95.8918706 C88.3041216,98.6306235 85.0214405,100 81.1415487,100 C77.2577019,100 73.9433805,98.6306235 71.1985845,95.8918706 C68.4537885,93.1531176 67.0813905,89.8460931 67.0813905,85.9707972 C67.0813905,85.5682715 67.1486261,85.2367798 67.2830974,84.9684294 L67.2830974,83.5674822 L24.703164,59.1160221 L24.1019983,59.7198106 C21.4204829,62.7940016 18.0072856,64.3291239 13.8584513,64.3291239 C10.1090758,64.3291239 6.86199001,62.9597474 4.117194,60.2209945 C1.372398,57.4822415 0,54.175217 0,50.2999211 C0,46.4246251 1.372398,43.121547 4.117194,40.3788477 C6.86199001,37.644041 10.1090758,36.2707182 13.8584513,36.2707182 C18.0072856,36.2707182 21.4204829,37.8097869 24.1019983,40.8800316 L24.703164,41.6811365 L67.4848043,17.0323599 L67.2830974,16.2312549 C67.2830974,15.9668508 67.2475021,15.5643252 67.1842215,15.0276243 C67.1130308,14.4988161 67.0813905,14.0962904 67.0813905,13.82794 C67.0813905,9.95264404 68.4537885,6.68113654 71.1985845,4.00552486 C73.9433805,1.33780584 77.2577019,0 81.1415487,0 C84.8869692,0 88.13801,1.33780584 90.882806,4.00552486 C93.623647,6.68113654 95,9.95264404 95,13.82794 C95,17.703236 93.6592423,21.0102605 90.9816819,23.7450671 C88.3041216,26.4877664 85.0214405,27.8531965 81.1415487,27.8531965 C77.6571607,27.8531965 74.5801415,26.7205998 71.9025812,24.4475138 L71.3014155,23.8476717 L27.7169026,48.8950276 L27.7169026,49.4988161 L27.7169026,49.8973954 L27.9186095,50.0986582 L27.9186095,50.5011839 C27.7841382,50.6353591 27.7169026,50.8366219 27.7169026,51.101026 L27.7169026,51.902131 L70.6962948,76.5509077 L71.4991674,75.9510655 C74.311199,73.4135754 77.5266445,72.1428571 81.1415487,72.1428571 C84.8869692,72.1428571 88.13801,73.480663 90.882806,76.1523283 L90.882806,76.1523283 Z" id="Shape" fill="#000000" sketch:type="MSShapeGroup"></path>
    </g>
</svg>