<?xml version="1.0" encoding="UTF-8" standalone="no"?>
<svg width="124px" height="100px" viewBox="0 0 124 100" version="1.1" xmlns="http://www.w3.org/2000/svg" xmlns:xlink="http://www.w3.org/1999/xlink" xmlns:sketch="http://www.bohemiancoding.com/sketch/ns">
    <!-- Generator: Sketch 3.2.1 (9971) - http://www.bohemiancoding.com/sketch -->
    <title>Slice 13</title>
    <desc>Created with Sketch.</desc>
    <defs></defs>
    <g id="Page-1" stroke="none" stroke-width="1" fill="none" fill-rule="evenodd" sketch:type="MSPage">
        <path d="M111.163048,24.9970695 C111.322476,25.641777 111.405143,26.6850311 111.405143,28.1268316 C111.405143,39.6612355 108.700762,50.8029539 103.292,61.5402649 C97.8832381,72.2775759 89.528,81.3738132 78.2262857,88.8231157 C66.9245714,96.2782792 53.8455238,100 38.9950476,100 C24.6169524,100 11.6264762,96.2372524 0,88.7058961 C1.29314286,88.8641425 3.30666667,88.9461962 6.05238095,88.9461962 C18.1630476,88.9461962 28.7384762,85.335834 37.7786667,78.1268316 C32.1278095,77.9685852 27.1619048,76.2864846 22.8868571,73.0805298 C18.6059048,69.8745751 15.5767619,65.7894737 13.8053333,60.8193647 C14.9331429,60.9776111 16.5510476,61.0596648 18.6472381,61.0596648 C21.0681905,61.0596648 23.3297143,60.8193647 25.4318095,60.3387645 C19.615619,59.0552104 14.7737143,56.1305826 10.9001905,51.564881 C7.0207619,46.9933185 5.084,41.6715508 5.084,35.5761341 L5.084,35.0955339 C8.6327619,37.182042 12.4295238,38.3014887 16.468381,38.4597351 C8.87485714,33.3372407 5.084,26.2864846 5.084,17.3074669 C5.084,13.1403118 6.29447619,8.89110304 8.72133333,4.56570156 C21.7944762,20.9119681 39.2371429,29.7268784 61.031619,31.0104325 C60.5474286,29.0880319 60.3053333,27.1656312 60.3053333,25.2432306 C60.3053333,18.3507209 62.7617143,12.4194116 67.6921905,7.44930254 C72.6167619,2.48505451 78.6278095,0 85.7371429,0 C93.1594286,0 99.3771429,2.6433009 104.384381,7.92990271 C110.678857,6.65220959 116.087619,4.64775525 120.610667,1.92240066 C118.673905,7.85371 114.953905,12.5014652 109.468381,15.8656664 C114.310286,15.2268198 119.158095,13.8612121 124,11.780565 C120.445333,17.0671668 116.164381,21.474622 111.163048,24.9970695 L111.163048,24.9970695 L111.163048,24.9970695 Z" id="Shape" fill="#000000" sketch:type="MSShapeGroup"></path>
    </g>
</svg>