<?xml version="1.0" standalone="no"?>
<!DOCTYPE svg PUBLIC "-//W3C//DTD SVG 1.1//EN" "http://www.w3.org/Graphics/SVG/1.1/DTD/svg11.dtd" >
<svg xmlns="http://www.w3.org/2000/svg">
<metadata></metadata>
<defs>
<font id="core_sans_g75_extrabold" horiz-adv-x="1286" >
<font-face units-per-em="2048" ascent="1638" descent="-410" />
<missing-glyph horiz-adv-x="614" />
<glyph horiz-adv-x="0" />
<glyph horiz-adv-x="682" />
<glyph horiz-adv-x="0" />
<glyph horiz-adv-x="0" />
<glyph horiz-adv-x="0" />
<glyph unicode="&#x9;" horiz-adv-x="485" />
<glyph unicode="&#xd;" horiz-adv-x="681" />
<glyph horiz-adv-x="0" />
<glyph unicode=" "  horiz-adv-x="614" />
<glyph unicode="&#x09;" horiz-adv-x="614" />
<glyph unicode="&#xa0;" horiz-adv-x="614" />
<glyph unicode="!" horiz-adv-x="696" d="M152 153.5q0 77.5 57 128t139 50.5t139 -51q57 -49 57.5 -127t-57 -128.5t-139.5 -50.5t-139 50.5t-57 128zM170 432v1002h356v-1002h-356z" />
<glyph unicode="&#x22;" horiz-adv-x="1169" d="M182 1434h324l-43 -623h-238zM663 1434h324l-43 -623h-238z" />
<glyph unicode="#" horiz-adv-x="1388" d="M98 313v262h193v289h-193v262h193v308h278v-308h250v308h279v-308h192v-262h-192v-289h192v-262h-192v-313h-279v313h-250v-313h-278v313h-193zM569 575h250v289h-250v-289z" />
<glyph unicode="$" horiz-adv-x="1142" d="M61 205l189 248q117 -156 305 -156q76 0 119 35t43 92q0 66 -42 111t-149 86q-201 78 -290 185t-89 269q0 127 76 225.5t207 137.5v184h260v-174q166 -31 299 -152l-180 -237q-88 94 -186 94q-119 0 -119 -88q0 -45 44 -82t167 -86q358 -143 358 -477q0 -162 -91 -275.5 t-255 -152.5v-180h-262v174q-252 39 -404 219z" />
<glyph unicode="%" horiz-adv-x="1927" d="M119 1112q0 145 103.5 245.5t249 100.5t247.5 -100q104 -100 104 -245.5t-103.5 -246t-248.5 -100.5t-248.5 100.5t-103.5 245.5zM356 1112q0 -47 33 -81t82 -34t82 33q33 35 33 82t-33 81t-82 34t-82 -34t-33 -81zM393 90l973 1368l168 -115l-973 -1368zM1104 321.5 q0 145.5 103.5 246t249 100.5t248.5 -100.5t103 -246t-103 -246t-249 -100t-250 100.5q-102 100 -102 245.5zM1341 321q0 -47 33 -80.5t82 -33.5t82 33.5t33 81t-33 81t-82 33.5t-82 -35q-33 -33 -33 -80z" />
<glyph unicode="&#x26;" horiz-adv-x="1378" d="M82 383q0 238 246 412q-127 178 -127 321q0 152 110.5 247t280.5 95q162 0 276.5 -96t114.5 -246q0 -201 -240 -368l224 -289q63 61 157 184l209 -227q-96 -115 -186 -187l182 -229l-348 -70l-94 125q-141 -80 -312 -80q-223 0 -358 115t-135 293zM418 393 q0 -66 48 -102.5t126 -36.5q68 0 123 29l-223 295q-47 -43 -60.5 -84t-13.5 -101zM508 1116q0 -61 70 -158q98 78 98 164q0 31 -22.5 58.5t-59.5 27.5q-41 0 -63.5 -27.5t-22.5 -64.5z" />
<glyph unicode="'" horiz-adv-x="688" d="M182 1434h324l-43 -623h-238z" />
<glyph unicode="(" horiz-adv-x="815" d="M170 635q0 483 266 901l279 -55q-225 -393 -225.5 -846t225.5 -846l-279 -55q-266 418 -266 901z" />
<glyph unicode=")" horiz-adv-x="815" d="M100 -211q225 393 225.5 845.5t-225.5 846.5l279 55q266 -418 266 -901t-266 -901z" />
<glyph unicode="*" horiz-adv-x="1228" d="M88 674l90 278l107 -32l227 -121l-45 252v112h295v-112l-45 -252l227 121l107 32l90 -278l-109 -33l-252 -29l189 -178l63 -92l-237 -170l-64 92l-117 232l-116 -232l-64 -92l-237 170l63 92l189 178l-252 29z" />
<glyph unicode="," horiz-adv-x="643" d="M55 -285l154 652l338 -56l-244 -635z" />
<glyph unicode="-" horiz-adv-x="831" d="M111 547v266h610v-266h-610z" />
<glyph unicode="." horiz-adv-x="643" d="M127 172q0 82 57.5 139.5t137 57.5t137 -57.5t57.5 -139.5t-57.5 -139.5t-137.5 -57t-137 57.5t-57 139z" />
<glyph unicode="/" horiz-adv-x="1165" d="M10 -170l842 1702l303 -55l-842 -1702z" />
<glyph unicode="0" d="M131 717q0 336 133 538.5t379 202.5t379 -203t133 -538.5t-133.5 -538.5t-379 -203t-378.5 203t-133 539zM487 717q0 -422 155.5 -422t156 422t-155.5 422t-156 -422z" />
<glyph unicode="1" d="M188 1137l568 315l147 -43v-1409h-356v995l-211 -114z" />
<glyph unicode="2" d="M143 143l463 629q74 100 99.5 148.5t25.5 97.5q0 55 -36 90t-95 35q-109 0 -164 -125l-280 129q63 150 187 230.5t282 80.5q205 0 333.5 -123t128.5 -317q0 -170 -143 -369l-246 -340h420v-309h-913z" />
<glyph unicode="3" d="M118 240l252 184q86 -131 211 -131q88 0 138.5 49t50.5 127q0 96 -63.5 151.5t-158.5 55.5q-37 0 -57 -6l-90 170l199 284h-387v310h815l77 -140l-296 -424q150 -53 233.5 -163.5t83.5 -266.5q0 -193 -139.5 -329t-378.5 -136q-154 0 -283 68t-207 197z" />
<glyph unicode="4" d="M51 381l746 1071l252 -18v-867h120v-319h-120v-248h-357v248h-586zM465 567h227v326z" />
<glyph unicode="5" d="M117 236l254 180q74 -121 209 -121q84 0 135 48t51 130q0 92 -60.5 147.5t-158.5 55.5q-90 0 -168 -49l-148 75l109 732h729v-320h-422l-33 -194q205 0 356.5 -124t151.5 -335q0 -209 -138 -347.5t-384 -138.5q-147 0 -276 67t-207 194z" />
<glyph unicode="6" d="M116 473q0 162 119 346l418 639l352 -80l-299 -456q180 -10 321.5 -137.5t141.5 -315.5q0 -213 -152.5 -353.5t-365.5 -140.5q-219 0 -377 140.5t-158 357.5zM465 463q0 -74 53 -126t125 -52t125 51q53 53 53 127t-53 126t-125 52t-125 -52t-53 -126z" />
<glyph unicode="7" d="M178 1114v320h914l77 -140l-538 -1319l-355 68l449 1071h-547z" />
<glyph unicode="8" d="M108 440q0 121 60.5 217.5t165.5 149.5q-59 43 -95 114.5t-36 151.5q0 166 123.5 275.5t316 109.5t316.5 -109.5t124 -275.5q0 -80 -36 -151.5t-95 -114.5q104 -51 164.5 -147.5t60.5 -219.5q0 -199 -150.5 -332t-384 -133t-384 133t-150.5 332zM465 469q0 -72 52 -125 t126 -53t126 53t52 125t-53 125q-51 53 -125 53t-126 -53t-52 -125zM518 1044.5q0 -51.5 37 -88.5t88 -36.5t88 37t37 88t-37 88t-88 36.5t-88 -36.5t-37 -88z" />
<glyph unicode="9" d="M116 965q0 213 153 353t366 140q219 0 376.5 -140t157.5 -357q0 -162 -119 -347l-417 -639l-353 80l299 457q-180 10 -321.5 137.5t-141.5 315.5zM465 971q0 -74 53 -126t125 -52t125 52t53 125.5t-53 126t-125 52.5t-125 -53q-53 -51 -53 -125z" />
<glyph unicode=":" horiz-adv-x="643" d="M127 172q0 82 57.5 139.5t137 57.5t137 -57.5t57.5 -139.5t-57.5 -139.5t-137.5 -57t-137 57.5t-57 139zM127 893q0 82 57.5 139.5t137 57.5t137 -57.5t57.5 -139.5t-57.5 -139.5t-137.5 -57t-137 57.5t-57 139z" />
<glyph unicode=";" horiz-adv-x="643" d="M20 -285l154 652l338 -56l-244 -635zM127 893q0 82 57.5 139.5t137 57.5t137 -57.5t57.5 -139.5t-57.5 -139.5t-137.5 -57t-137 57.5t-57 139z" />
<glyph unicode="&#x3c;" horiz-adv-x="1290" d="M131 614v131l963 525l65 -307l-551 -283l551 -283l-65 -307z" />
<glyph unicode="=" horiz-adv-x="1290" d="M131 293v266h1028v-266h-1028zM131 801v266h1028v-266h-1028z" />
<glyph unicode="&#x3e;" horiz-adv-x="1290" d="M131 397l551 283l-551 283l66 307l962 -525v-131l-962 -524z" />
<glyph unicode="?" horiz-adv-x="1091" d="M59 1163q63 139 188.5 217t293.5 78q215 0 346 -102.5t131 -255.5q0 -139 -73 -226.5t-222 -156.5q-94 -43 -130 -71t-36 -56q0 -51 74 -51q55 -1 94 28l49 -114q-84 -57 -213 -58q-123 0 -197.5 64.5t-74.5 165.5q0 168 194 270q96 49 137.5 85t41.5 77q0 49 -37 76.5 t-101 27.5q-111 0 -168 -96zM350 153.5q0 77.5 57.5 128t139.5 50.5t139 -51q57 -49 57 -127t-57 -128.5t-139 -50.5t-139.5 50.5t-57.5 128z" />
<glyph unicode="@" horiz-adv-x="1925" d="M82 561.5q0 231.5 114.5 438t317.5 332.5t440 126q375 0 632 -255t257 -597q0 -209 -109.5 -339t-303.5 -130q-211 0 -291 137q-96 -133 -273 -133q-166 0 -275.5 121t-109.5 297t109.5 297t275.5 121q156 0 267 -117v96h268v-532q0 -143 110 -143q86 0 139.5 87 t53.5 238q0 303 -214 516t-536 213q-303 0 -518 -227t-215 -547q0 -315 220.5 -542.5t539.5 -227.5q272 0 489 141l54 -110q-252 -154 -543 -154q-248 0 -457 126t-325.5 331t-116.5 436.5zM748 559q0 -74 53 -128t129 -54t129 54t53 128t-53 128t-129 54t-129 -55 q-53 -53 -53 -127z" />
<glyph unicode="A" horiz-adv-x="1400" d="M29 27l575 1415h193l575 -1415l-356 -52l-90 248h-451l-90 -248zM578 506h243l-121 334z" />
<glyph unicode="B" horiz-adv-x="1183" d="M135 0v1434h389q236 0 369 -106.5t133 -278.5q0 -180 -156 -285q117 -45 180.5 -136t63.5 -218q0 -182 -150.5 -296t-433.5 -114h-395zM492 305h47q195 0 195 155q0 156 -195 156h-47v-311zM492 899h59q141 0 141 114.5t-141 114.5h-59v-229z" />
<glyph unicode="C" horiz-adv-x="1497" d="M80 716.5q0 319.5 224.5 530.5t533.5 211q180 0 334.5 -69.5t263.5 -190.5l-267 -211q-133 152 -323 152q-170 0 -290 -122t-120 -300t120 -300t290 -122q190 0 323 151l267 -210q-109 -121 -263.5 -191t-334.5 -70q-309 0 -533.5 211t-224.5 530.5z" />
<glyph unicode="D" horiz-adv-x="1406" d="M135 0v1434h436q324 0 539 -199t215 -518.5t-215 -518t-539 -198.5h-436zM492 319h88q178 0 283.5 108t105.5 290t-105.5 289.5t-283.5 107.5h-88v-795z" />
<glyph unicode="E" horiz-adv-x="1048" d="M135 0v1434h805v-320h-448v-192h403v-320h-403v-283h466v-319h-823z" />
<glyph unicode="F" horiz-adv-x="999" d="M135 0v1434h793v-320h-436v-207h391v-319h-391v-588h-357z" />
<glyph unicode="G" horiz-adv-x="1615" d="M80 716.5q0 317.5 222.5 529.5t533.5 212q186 0 350 -80t272 -217l-270 -198q-66 80 -158 128t-188 48q-166 0 -286 -122t-120 -300q0 -182 122 -302t276 -120q139 0 232 64.5t118 181.5h-295v233h651v-117q0 -303 -197.5 -492.5t-507 -189.5t-532.5 212t-223 529.5z" />
<glyph unicode="H" horiz-adv-x="1388" d="M135 0v1434h357v-519h405v519h356v-1434h-356v596h-405v-596h-357z" />
<glyph unicode="I" horiz-adv-x="659" d="M152 0v1434h356v-1434h-356z" />
<glyph unicode="J" horiz-adv-x="1060" d="M2 217l272 174q49 -96 150 -96q145 0 145 190v949h357v-963q0 -236 -130 -366t-350 -130q-137 0 -254.5 63.5t-189.5 178.5z" />
<glyph unicode="K" horiz-adv-x="1361" d="M135 0v1434h357v-639l464 663l332 -112l-448 -611l493 -641l-346 -119l-495 697v-672h-357z" />
<glyph unicode="L" horiz-adv-x="1017" d="M135 0v1434h357v-1115h483v-319h-840z" />
<glyph unicode="M" horiz-adv-x="2015" d="M37 27l430 1417h192l349 -858l348 858h192l430 -1417l-362 -52l-213 748l-299 -733h-193l-299 733l-213 -748z" />
<glyph unicode="N" horiz-adv-x="1501" d="M135 0v1425l176 33l699 -796v772h356v-1426l-176 -33l-698 797v-772h-357z" />
<glyph unicode="O" horiz-adv-x="1695" d="M80 716.5q0 317.5 226 529.5t542 212t541 -213q227 -211 227 -528.5t-226.5 -529.5t-542 -212t-541.5 212t-226 529.5zM436 717q0 -178 120 -300t292 -122t292 122t120 300t-120 300t-292 122t-293 -123q-119 -121 -119 -299z" />
<glyph unicode="P" horiz-adv-x="1159" d="M135 0v1434h412q258 0 404.5 -134.5t146.5 -339t-146.5 -339t-404.5 -134.5h-55v-487h-357zM492 786h57q90 0 141 45.5t51 129t-51 129t-141 45.5h-57v-349z" />
<glyph unicode="Q" horiz-adv-x="1695" d="M80 716.5q0 317.5 226 529.5t541.5 212t542 -212t226.5 -529q0 -248 -148 -441l146 -143l-195 -188l-149 149q-193 -119 -422 -119q-315 0 -541.5 212t-226.5 529.5zM436 717q0 -178 120 -300t292 -122q96 0 182 41l-182 186l190 185l179 -181q43 92 43 191 q0 178 -120 300t-292 122t-292 -122t-120 -300z" />
<glyph unicode="R" horiz-adv-x="1249" d="M135 0v1434h443q229 0 370.5 -129t141.5 -344q0 -133 -64.5 -232.5t-173.5 -153.5l385 -532l-354 -68l-391 572v-547h-357zM492 786h49q90 0 141 45.5t51 129t-51 129t-141 45.5h-49v-349z" />
<glyph unicode="S" horiz-adv-x="1153" d="M61 201l195 256q117 -160 297 -160q78 0 123 37t45 94q0 66 -41 108t-150 85q-201 78 -289.5 185t-88.5 269t118.5 272.5t313.5 110.5q236 0 411 -160l-182 -239q-88 94 -186 94q-119 0 -119 -88q0 -45 44 -82t167 -86q358 -143 358 -477q0 -201 -131 -323t-366 -122 q-150 0 -287 60.5t-232 165.5z" />
<glyph unicode="T" horiz-adv-x="1089" d="M53 1114v320h983v-320h-313v-1114h-356v1114h-314z" />
<glyph unicode="U" horiz-adv-x="1380" d="M135 535v899h357v-910q0 -109 54 -169t144 -60t144.5 60.5t54.5 168.5v910h356v-899q0 -256 -163.5 -408t-391 -152t-391.5 152t-164 408z" />
<glyph unicode="V" horiz-adv-x="1409" d="M33 1407l356 51l316 -864l315 864l356 -51l-575 -1415h-193z" />
<glyph unicode="W" horiz-adv-x="2088" d="M33 1407l362 51l267 -796l286 782h193l286 -782l267 796l362 -51l-522 -1417h-193l-297 813l-296 -813h-193z" />
<glyph unicode="X" horiz-adv-x="1376" d="M23 47l440 701l-393 638l362 72l256 -436l256 436l363 -72l-394 -638l441 -701l-371 -72l-295 496l-295 -496z" />
<glyph unicode="Y" horiz-adv-x="1392" d="M29 1389l358 69l309 -573l310 573l358 -69l-490 -834v-555h-356v555z" />
<glyph unicode="Z" horiz-adv-x="1179" d="M63 143l525 971h-453v320h893l62 -146l-517 -969h531v-319h-977z" />
<glyph unicode="[" horiz-adv-x="837" d="M233 -266v1802h543v-279h-227v-1245h227v-278h-543z" />
<glyph unicode="\" horiz-adv-x="1165" d="M10 1477l303 55l842 -1702l-303 -55z" />
<glyph unicode="]" horiz-adv-x="837" d="M61 12h228v1245h-228v279h543v-1802h-543v278z" />
<glyph unicode="_" horiz-adv-x="1024" d="M0 -178h1024v-201h-1024v201z" />
<glyph unicode="a" horiz-adv-x="1314" d="M76 479q0 213 138 358.5t339 145.5q98 0 183 -39t134 -100v114h324v-958h-324v115q-49 -61 -134 -100.5t-183 -39.5q-201 0 -339 145.5t-138 358.5zM408 479q0 -94 65.5 -159.5t159.5 -66.5h1q93 0 159 66t66 159q-1 95 -67 161t-159.5 66t-159 -66t-65.5 -160z" />
<glyph unicode="b" horiz-adv-x="1314" d="M121 0v1536h323v-692q49 61 134.5 100t183.5 39q201 0 339 -145.5t138 -358.5t-138 -358.5t-339 -145.5q-98 0 -183 39t-135 101v-115h-323zM522 320q66 -66 160 -66t159.5 65.5t65.5 159.5t-65.5 160t-159.5 66t-160 -66t-66 -159q0 -94 66 -160z" />
<glyph unicode="c" horiz-adv-x="1056" d="M72 479q0 211 154.5 357.5t369.5 146.5q252 0 420 -186l-244 -195q-63 86 -174 86q-80 0 -141.5 -58.5t-61.5 -150.5t61.5 -150.5t141.5 -58.5q111 0 174 86l244 -194q-168 -186 -420 -187q-215 0 -369.5 146.5t-154.5 357.5z" />
<glyph unicode="d" horiz-adv-x="1314" d="M76 479q0 213 138 358.5t339 145.5q98 0 183 -39t134 -100v692h324v-1536h-324v115q-49 -61 -134 -100.5t-183 -39.5q-201 0 -339 145.5t-138 358.5zM408 479q0 -94 65.5 -159.5t159.5 -66.5h1q93 0 159 66t66 159q-1 95 -67 161t-159.5 66t-159 -66t-65.5 -160z" />
<glyph unicode="e" horiz-adv-x="1187" d="M72 479q0 213 153.5 358.5t374.5 145.5q213 0 366.5 -145.5t153.5 -358.5q0 -59 -4 -84h-704q20 -68 73.5 -106.5t120.5 -38.5q125 0 195 100l270 -151q-172 -223 -463 -224q-227 0 -381.5 143.5t-154.5 360.5zM414 604h393q-20 55 -73.5 90t-123 35t-123 -35t-73.5 -90z " />
<glyph unicode="f" horiz-adv-x="837" d="M57 700v258h150v185q0 195 102.5 305.5t282.5 110.5q201 0 336 -148l-201 -184q-39 43 -98 43q-98 0 -99 -135v-177h252v-258h-252v-700h-323v700h-150z" />
<glyph unicode="g" horiz-adv-x="1314" d="M76 479q0 213 138 358.5t339 145.5q98 0 183 -39t134 -100v114h324v-927q0 -307 -152.5 -458t-414.5 -151q-139 0 -264 57.5t-211 160.5l215 188q100 -127 254 -127q249 0 249 303v111q-49 -61 -134 -100.5t-183 -39.5q-201 0 -339 145.5t-138 358.5zM408 479 q0 -94 65.5 -159.5t159.5 -65.5l1 -1q93 0 159 66t66 159q-1 95 -67 161q-65 66 -159 66t-159.5 -66t-65.5 -160z" />
<glyph unicode="h" horiz-adv-x="1169" d="M121 0v1536h323v-690q102 137 289 137q139 0 230.5 -95t91.5 -255v-633h-324v553q0 66 -41 109t-102.5 43t-102.5 -43t-41 -109v-553h-323z" />
<glyph unicode="i" horiz-adv-x="589" d="M106 1326q0 77 56 131t133.5 54t132.5 -54t55 -132t-55 -132t-133 -54t-133 53q-56 55 -56 134zM133 0v958h324v-958h-324z" />
<glyph unicode="j" horiz-adv-x="628" d="M-281 -412l213 191q51 -78 131 -78q119 0 119 166v1091h324v-1095q0 -207 -112.5 -324t-313.5 -117q-104 0 -201 44t-160 122zM156 1325q0 78 55 132t133 54t133 -54t55 -132t-55 -132t-133 -54t-133 53q-55 55 -55 133z" />
<glyph unicode="k" horiz-adv-x="1189" d="M121 0v1536h323v-944l351 391l331 -72l-368 -407l407 -461l-344 -68l-377 441v-416h-323z" />
<glyph unicode="l" horiz-adv-x="581" d="M129 0v1536h324v-1536h-324z" />
<glyph unicode="m" horiz-adv-x="1779" d="M121 0v958h323v-112q109 137 279 137q180 0 278 -152q129 152 328 152q147 0 241.5 -96t94.5 -258v-629h-324v553q0 66 -40.5 109t-102 43t-102.5 -43.5t-41 -108.5v-553h-324v553q0 66 -41 109t-102.5 43t-102.5 -43.5t-41 -108.5v-553h-323z" />
<glyph unicode="n" horiz-adv-x="1169" d="M121 0v958h323v-112q102 137 289 137q139 0 230.5 -95t91.5 -255v-633h-324v553q0 66 -41 109t-102.5 43t-102.5 -43t-41 -109v-553h-323z" />
<glyph unicode="o" horiz-adv-x="1208" d="M72 479q0 211 154.5 357.5t377.5 146.5t377 -147q156 -145 156 -356.5t-155 -358t-378 -146.5t-377.5 146.5t-154.5 357.5zM395 479q-1 -89 63 -149q63 -59 145 -60h1q82 0 146 60q63 59 63 149t-63.5 149.5t-145.5 59.5t-145.5 -59.5t-63.5 -149.5z" />
<glyph unicode="p" horiz-adv-x="1314" d="M121 -578v1536h323v-114q49 61 134.5 100t183.5 39q201 0 339 -145.5t138 -358.5t-138 -358.5t-339 -145.5q-98 0 -183 39t-135 101v-693h-323zM522 320q66 -66 160 -66t159.5 65.5t65.5 159.5t-65.5 160t-159.5 66t-160 -66t-66 -159q1 -95 66 -160z" />
<glyph unicode="q" horiz-adv-x="1314" d="M76 479q0 213 138 358.5t339 145.5q98 0 183 -39t134 -100v114h324v-1536h-324v693q-49 -61 -134 -100.5t-183 -39.5q-201 0 -339 145.5t-138 358.5zM408 479q0 -94 65.5 -159.5t159.5 -65.5l1 -1q93 0 159 66t66 159q-1 95 -67 161q-65 66 -159 66t-159.5 -66 t-65.5 -160z" />
<glyph unicode="r" horiz-adv-x="872" d="M121 0v958h323v-116q96 141 256 141q92 0 160 -35l-92 -280q-57 37 -137 37q-88 0 -137.5 -59.5t-49.5 -166.5v-479h-323z" />
<glyph unicode="s" horiz-adv-x="843" d="M47 123l150 192q78 -94 168 -94q41 0 64.5 18.5t23.5 51.5q0 37 -20.5 61.5t-80.5 48.5q-246 104 -246 306q0 123 90.5 199.5t235.5 76.5q174 0 303 -113l-141 -180q-43 47 -102 47q-61 0 -62 -41q0 -23 22.5 -41t92.5 -49q231 -102 231 -311q0 -139 -94 -229.5 t-264 -90.5q-231 0 -371 148z" />
<glyph unicode="t" horiz-adv-x="780" d="M57 700v258h150v271h323v-271h211v-258h-211v-700h-323v700h-150z" />
<glyph unicode="u" horiz-adv-x="1175" d="M121 326v632h323v-552q0 -66 41 -109t102.5 -43t102.5 43t41 109v552h324v-958h-324v113q-102 -137 -289 -138q-139 0 -230 95.5t-91 255.5z" />
<glyph unicode="v" horiz-adv-x="1056" d="M29 932l323 51l176 -491l177 491l323 -51l-412 -940h-176z" />
<glyph unicode="w" horiz-adv-x="1634" d="M18 930l324 53l180 -494l207 478h176l207 -478l180 494l324 -53l-416 -938h-176l-207 502l-207 -502h-176z" />
<glyph unicode="x" horiz-adv-x="1064" d="M29 41l290 455l-264 419l322 68l155 -283l156 283l322 -68l-265 -419l291 -455l-321 -66l-183 318l-182 -318z" />
<glyph unicode="y" horiz-adv-x="1112" d="M37 932l323 51l197 -569l195 569l323 -51l-567 -1534l-324 53l224 578z" />
<glyph unicode="z" horiz-adv-x="925" d="M61 104l332 596h-272v258h678l41 -106l-330 -594h348v-258h-754z" />
<glyph unicode="{" horiz-adv-x="911" d="M152 578v114q176 59 176 269v178q0 182 103.5 289.5t279.5 107.5h135v-279h-39q-164 0 -164 -196v-105q0 -219 -194 -321q195 -102 194 -322v-104q0 -197 164 -197h39v-278h-135q-176 0 -279.5 107.5t-103.5 289.5v178q0 210 -176 269z" />
<glyph unicode="}" horiz-adv-x="911" d="M66 12h38q164 0 164 197v104q0 219 195 322q-195 102 -195 321v105q0 197 -164 196h-38v279h135q176 0 279.5 -107.5t103.5 -289.5v-178q0 -210 176 -269v-114q-176 -59 -176 -269v-178q0 -182 -103.5 -289.5t-279.5 -107.5h-135v278z" />
<glyph unicode="&#xa8;" horiz-adv-x="856" d="M84 1329q0 57 41 98t98 41t98 -41t41 -98t-41 -98t-98 -41t-98 41t-41 98zM493 1329q0 57 41 98t98.5 41t98.5 -41t41 -98t-41 -98t-98.5 -41t-98.5 41t-41 98z" />
<glyph unicode="&#xa9;" horiz-adv-x="1675" d="M96 717q0 307 217 524t524.5 217t524.5 -217t217 -524t-217 -524.5t-524.5 -217t-524.5 217.5t-217 524zM211 717q0 -264 183.5 -449.5t443.5 -185.5t442 184q184 186 184 450.5t-183 450t-443 185.5t-443.5 -185.5t-183.5 -449.5zM449 717q0 170 120.5 283.5 t290.5 113.5q197 0 330 -149l-178 -144q-55 74 -142 74q-72 0 -121 -49t-49 -129t49 -129t121 -49q86 0 142 73l178 -143q-133 -150 -330 -150q-170 0 -290.5 114t-120.5 284z" />
<glyph unicode="&#xab;" horiz-adv-x="1253" d="M80 592v94l508 364l59 -213l-285 -198l285 -199l-59 -213zM604 592v94l510 364l60 -213l-287 -198l287 -199l-60 -213z" />
<glyph unicode="&#xad;" horiz-adv-x="831" d="M111 547v266h610v-266h-610z" />
<glyph unicode="&#xaf;" horiz-adv-x="1024" d="M0 1229v201h1024v-201h-1024z" />
<glyph unicode="&#xb0;" horiz-adv-x="819" d="M119 1175.5q0 120.5 85 201.5t205.5 81t204.5 -82q86 -80 86 -200.5t-85 -201.5t-205.5 -81t-205.5 81t-85 201.5zM303 1175q0 -45 31 -75.5t76 -30.5t75.5 30.5t30.5 76t-30.5 76t-75.5 30.5t-76 -31t-31 -76z" />
<glyph unicode="&#xb4;" horiz-adv-x="856" d="M199 1274l323 268l136 -160l-328 -264z" />
<glyph unicode="&#xb7;" horiz-adv-x="643" d="M127 684q0 82 57.5 139.5t137 57.5t137 -57.5t57.5 -139.5t-57.5 -139.5t-137.5 -57t-137 57.5t-57 139z" />
<glyph unicode="&#xba;" horiz-adv-x="942" d="M84 1087.5q0 153.5 113.5 262t271.5 108.5q162 0 275.5 -108.5t113.5 -262t-113.5 -262t-275.5 -108.5q-158 0 -271.5 108.5t-113.5 262zM319 1087.5q0 -63.5 44.5 -107.5t108 -44t107.5 44t44 107.5t-44 107.5t-108 44t-109 -45q-43 -43 -43 -106.5z" />
<glyph unicode="&#xbb;" horiz-adv-x="1253" d="M80 440l287 199l-287 198l59 213l508 -364v-94l-508 -365zM604 440l287 199l-287 198l60 213l510 -364v-94l-510 -365z" />
<glyph unicode="&#x2c6;" horiz-adv-x="856" d="M70 1270l323 270h70l323 -270l-133 -156l-225 186l-225 -186z" />
<glyph unicode="&#x2dc;" horiz-adv-x="856" d="M66 1229q16 125 76.5 191.5t150.5 66.5q82 0 168 -70q49 -39 82 -39q49 1 63 101l185 -45q-16 -125 -77 -191.5t-151 -66.5q-80 0 -166 69q-49 39 -84 39q-49 0 -63 -100z" />
<glyph unicode="&#x401;" horiz-adv-x="1048" d="M135 0v1434h805v-320h-448v-192h403v-320h-403v-283h466v-319h-823zM190 1747q0 57 41 98t98.5 41t98.5 -41t41 -98t-41 -98t-98.5 -41t-98.5 41t-41 98zM600 1747q0 57 41 98t98.5 41t98.5 -41t41 -98t-41 -98t-98.5 -41t-98.5 41t-41 98z" />
<glyph unicode="&#x410;" horiz-adv-x="1400" d="M29 27l575 1415h193l575 -1415l-356 -52l-90 248h-451l-90 -248zM578 506h243l-121 334z" />
<glyph unicode="&#x411;" horiz-adv-x="1153" d="M135 0v1434h844v-285h-487v-203h55q258 0 404.5 -134t146.5 -339t-146.5 -339t-404.5 -134h-412zM492 299h57q90 0 141 45t51 129t-51 129t-141 45h-57v-348z" />
<glyph unicode="&#x412;" horiz-adv-x="1183" d="M135 0v1434h389q236 0 369 -106.5t133 -278.5q0 -180 -156 -285q117 -45 180.5 -136t63.5 -218q0 -182 -150.5 -296t-433.5 -114h-395zM492 305h47q195 0 194.5 155.5t-194.5 155.5h-47v-311zM492 899h59q141 0 141 114.5t-141 114.5h-59v-229z" />
<glyph unicode="&#x413;" horiz-adv-x="968" d="M135 0v1434h783v-308h-426v-1126h-357z" />
<glyph unicode="&#x414;" horiz-adv-x="1374" d="M20 -258v565h109q180 426 180 1004v123h891v-1127h127v-565h-356v258h-592v-258h-359zM477 307h377v819h-227q-17 -483 -150 -819z" />
<glyph unicode="&#x415;" horiz-adv-x="1048" d="M135 0v1434h805v-320h-448v-192h403v-320h-403v-283h466v-319h-823z" />
<glyph unicode="&#x416;" horiz-adv-x="2039" d="M29 94l465 641l-420 611l332 112l436 -663v639h356v-639l436 663l332 -112l-420 -611l465 -641l-342 -119l-471 697v-672h-356v672l-471 -697z" />
<glyph unicode="&#x417;" horiz-adv-x="1155" d="M63 221l250 193q92 -131 226 -131q80 0 133 50t53 122q0 80 -55.5 130t-147.5 50h-121v276h101q72 0 117 39t45 97q0 53 -36 87.5t-93 34.5q-104 0 -175 -110l-241 145q162 254 446 254q186 0 303 -106.5t117 -253.5q0 -182 -158 -281q117 -51 185.5 -150.5t68.5 -234.5 q0 -193 -144 -325t-374 -132q-315 0 -500 246z" />
<glyph unicode="&#x418;" horiz-adv-x="1501" d="M135 8v1426h357v-772l698 796l176 -33v-1425h-356v772l-699 -797z" />
<glyph unicode="&#x419;" horiz-adv-x="1501" d="M135 8v1426h357v-772l698 796l176 -33v-1425h-356v772l-699 -797zM432 1906h213q0 -49 29 -84.5t76 -35.5t75.5 35.5t28.5 84.5h213q0 -143 -92 -235t-225 -92t-225.5 92t-92.5 235z" />
<glyph unicode="&#x41a;" horiz-adv-x="1361" d="M135 0v1434h357v-639l464 663l332 -112l-448 -611l493 -641l-346 -119l-495 697v-672h-357z" />
<glyph unicode="&#x41b;" horiz-adv-x="1488" d="M14 78q119 129 176.5 267t73.5 329l62 760h1028v-1434h-357v1124h-338l-32 -407q-23 -279 -82.5 -446t-188.5 -296q-23 6 -150.5 44t-191.5 59z" />
<glyph unicode="&#x41c;" horiz-adv-x="2015" d="M37 27l430 1417h192l349 -858l348 858h192l430 -1417l-362 -52l-213 748l-299 -733h-193l-299 733l-213 -748z" />
<glyph unicode="&#x41d;" horiz-adv-x="1388" d="M135 0v1434h357v-519h405v519h356v-1434h-356v596h-405v-596h-357z" />
<glyph unicode="&#x41e;" horiz-adv-x="1695" d="M80 716.5q0 317.5 226 529.5t542 212t541 -213q227 -211 227 -528.5t-226.5 -529.5t-542 -212t-541.5 212t-226 529.5zM436 717q0 -178 120 -300t292 -122t292 122t120 300t-120 300t-292 122t-293 -123q-119 -121 -119 -299z" />
<glyph unicode="&#x41f;" horiz-adv-x="1388" d="M135 0v1434h1118v-1434h-356v1126h-405v-1126h-357z" />
<glyph unicode="&#x420;" horiz-adv-x="1159" d="M135 0v1434h412q258 0 404.5 -134.5t146.5 -339t-146.5 -339t-404.5 -134.5h-55v-487h-357zM492 786h57q90 0 141 45.5t51 129t-51 129t-141 45.5h-57v-349z" />
<glyph unicode="&#x421;" horiz-adv-x="1497" d="M80 716.5q0 319.5 224.5 530.5t533.5 211q180 0 334.5 -69.5t263.5 -190.5l-267 -211q-133 152 -323 152q-170 0 -290 -122t-120 -300t120 -300t290 -122q190 0 323 151l267 -210q-109 -121 -263.5 -191t-334.5 -70q-309 0 -533.5 211t-224.5 530.5z" />
<glyph unicode="&#x422;" horiz-adv-x="1089" d="M53 1114v320h983v-320h-313v-1114h-356v1114h-314z" />
<glyph unicode="&#x423;" horiz-adv-x="1378" d="M33 1393l358 65l303 -592l299 592l359 -65l-738 -1418l-358 64l248 481z" />
<glyph unicode="&#x424;" horiz-adv-x="1832" d="M70 717q0 248 179 403.5t443 155.5h45v158h359v-158h45q264 0 443 -155.5t179 -403.5t-179 -403.5t-443 -155.5h-45v-158h-359v158h-45q-264 0 -443 155.5t-179 403.5zM414 717q0 -121 76.5 -191.5t195.5 -70.5h51v524h-51q-119 0 -195.5 -70.5t-76.5 -191.5zM1096 455 h51q119 0 195.5 70.5t76.5 191.5t-76.5 191.5t-195.5 70.5h-51v-524z" />
<glyph unicode="&#x425;" horiz-adv-x="1376" d="M23 47l440 701l-393 638l362 72l256 -436l256 436l363 -72l-394 -638l441 -701l-371 -72l-295 496l-295 -496z" />
<glyph unicode="&#x426;" horiz-adv-x="1427" d="M135 0v1434h357v-1127h405v1127h356v-1127h127v-565h-356v258h-889z" />
<glyph unicode="&#x427;" horiz-adv-x="1257" d="M111 979v455h356v-355q0 -229 174 -229q78 0 125 29v555h356v-1434h-356v604q-98 -63 -246 -63q-174 0 -291.5 116.5t-117.5 321.5z" />
<glyph unicode="&#x428;" horiz-adv-x="1986" d="M135 0v1434h357v-1127h323v1127h356v-1127h324v1127h356v-1434h-1716z" />
<glyph unicode="&#x429;" horiz-adv-x="2025" d="M135 0v1434h357v-1127h323v1127h356v-1127h324v1127h356v-1127h127v-565h-356v258h-1487z" />
<glyph unicode="&#x42a;" horiz-adv-x="1329" d="M41 1124v310h641v-488h55q258 0 404.5 -134t146.5 -339t-146.5 -339t-404.5 -134h-411v1124h-285zM682 299h57q90 0 141.5 45t51.5 129t-51.5 129t-141.5 45h-57v-348z" />
<glyph unicode="&#x42b;" horiz-adv-x="1759" d="M135 0v1434h357v-488h55q258 0 404.5 -134t146.5 -339t-146.5 -339t-404.5 -134h-412zM492 299h57q90 0 141 45t51 129t-51 129t-141 45h-57v-348zM1256 0v1434h356v-1434h-356z" />
<glyph unicode="&#x42c;" horiz-adv-x="1138" d="M135 0v1434h357v-488h55q258 0 404.5 -134t146.5 -339t-146.5 -339t-404.5 -134h-412zM492 299h57q90 0 141 45t51 129t-51 129t-141 45h-57v-348z" />
<glyph unicode="&#x42d;" horiz-adv-x="1497" d="M61 236l267 210q133 -152 323 -151q129 0 232.5 72.5t148.5 193.5h-614v311h614q-45 119 -149.5 193t-231.5 74q-190 0 -323 -152l-267 211q109 121 263.5 190.5t334.5 69.5q309 0 533.5 -211t224.5 -530.5t-224.5 -530.5t-533.5 -211q-180 0 -334.5 70t-263.5 191z" />
<glyph unicode="&#x42e;" horiz-adv-x="2265" d="M135 0v1434h357v-557h174q57 256 268 418.5t483 162.5q315 0 541.5 -212t226.5 -529.5t-226.5 -529.5t-541.5 -212q-272 0 -483 162t-268 420h-174v-557h-357zM1005.5 717q0.5 -178 120 -300t291.5 -122t292 122t120 300t-120 300t-292 122t-293 -123 q-119 -121 -118.5 -299z" />
<glyph unicode="&#x42f;" horiz-adv-x="1249" d="M12 43l385 532q-109 53 -173 152.5t-64 233.5q0 215 141 344t371 129h442v-1434h-356v547l-391 -572zM516 944q0 -78 44 -119t108 -41h90v340h-90q-61 0 -106.5 -50t-45.5 -130z" />
<glyph unicode="&#x430;" horiz-adv-x="1314" d="M76 479q0 213 138 358.5t339 145.5q98 0 183 -39t134 -100v114h324v-958h-324v115q-49 -61 -134 -100.5t-183 -39.5q-201 0 -339 145.5t-138 358.5zM408 479q0 -94 65.5 -159.5t159.5 -66t160 65.5t65.5 160t-66 160t-159.5 66t-159.5 -66t-65.5 -160z" />
<glyph unicode="&#x431;" horiz-adv-x="1234" d="M92 584q0 461 197.5 688t660.5 264l54 -279q-270 -18 -394.5 -108t-134.5 -254q82 68 221 68q201 0 334 -141.5t133 -342.5q0 -211 -152.5 -357.5t-379.5 -146.5q-240 0 -389.5 161t-149.5 448zM422 479q0 -90 63.5 -149.5t145.5 -59t145 59.5t63.5 149t-63 149.5 t-145.5 59.5t-145.5 -59.5t-63.5 -149.5z" />
<glyph unicode="&#x432;" horiz-adv-x="1026" d="M121 0v958h457q152 0 237.5 -73.5t85.5 -171.5q0 -127 -110 -189q84 -27 135 -90t51 -149q0 -129 -95 -207t-255 -78h-506zM426 221h133q51 0 83 23.5t32 66.5t-32 65.5t-83 22.5h-133v-178zM426 596h109q88 0 88 72q0 33 -25 51t-63 18h-109v-141z" />
<glyph unicode="&#x433;" horiz-adv-x="831" d="M121 0v958h653v-258h-330v-700h-323z" />
<glyph unicode="&#x434;" horiz-adv-x="1126" d="M25 -217v455h86q143 274 143 636v84h723v-720h106v-455h-323v217h-412v-217h-323zM428 238h246v483h-129q-13 -258 -117 -483z" />
<glyph unicode="&#x435;" horiz-adv-x="1187" d="M72 479q0 213 153.5 358.5t374.5 145.5q213 0 366.5 -145.5t153.5 -358.5q0 -59 -4 -84h-704q20 -68 73.5 -106.5t120.5 -38.5q125 0 195 100l270 -151q-172 -223 -463 -224q-227 0 -381.5 143.5t-154.5 360.5zM414 604h393q-20 55 -73.5 90t-123 35t-123 -35t-73.5 -90z " />
<glyph unicode="&#x436;" horiz-adv-x="1757" d="M25 43l393 461l-355 407l324 72l330 -391v366h323v-366l330 391l324 -72l-355 -407l394 -461l-324 -68l-369 441v-416h-323v416l-369 -441z" />
<glyph unicode="&#x437;" horiz-adv-x="915" d="M43 145l217 152q66 -86 162 -86q49 0 84 25.5t35 62.5q0 102 -142 102h-96v215h86q113 0 113 76q0 29 -23.5 48.5t-64.5 19.5q-68 0 -123 -62l-203 121q137 164 363 164q158 0 254 -74.5t96 -175.5q0 -131 -107 -190q168 -70 168 -260q0 -127 -114.5 -217.5t-296.5 -90.5 q-254 0 -408 170z" />
<glyph unicode="&#x438;" horiz-adv-x="1200" d="M121 -2v960h313v-462l508 487l137 -22v-961h-313v463l-508 -488z" />
<glyph unicode="&#x439;" horiz-adv-x="1200" d="M121 -2v960h313v-462l508 487l137 -22v-961h-313v463l-508 -488zM282 1448h213q0 -49 29 -84.5t76 -35.5t75.5 35.5t28.5 84.5h213q0 -143 -92 -235t-225 -92t-225.5 92t-92.5 235z" />
<glyph unicode="&#x43a;" horiz-adv-x="1189" d="M121 0v958h323v-366l351 391l331 -72l-368 -407l407 -461l-344 -68l-377 441v-416h-323z" />
<glyph unicode="&#x43b;" horiz-adv-x="1206" d="M10 61q72 74 122 187.5t61 238.5l40 471h852v-958h-323v705h-217l-23 -234q-29 -319 -182 -496z" />
<glyph unicode="&#x43c;" horiz-adv-x="1474" d="M18 14l344 955h125l250 -514l250 514h125l344 -955l-305 -39l-147 453l-203 -438h-127l-203 438l-147 -453z" />
<glyph unicode="&#x43d;" horiz-adv-x="1167" d="M121 0v958h323v-319h279v319h324v-958h-324v381h-279v-381h-323z" />
<glyph unicode="&#x43e;" horiz-adv-x="1208" d="M72 479q0 211 154.5 357.5t377.5 146.5t377 -147q156 -145 156 -356.5t-155 -358t-378 -146.5t-377.5 146.5t-154.5 357.5zM395 479q0 -90 63.5 -149.5t146 -59t145.5 59.5t63 149t-63.5 149.5t-145.5 59.5t-145.5 -59.5t-63.5 -149.5z" />
<glyph unicode="&#x43f;" horiz-adv-x="1167" d="M121 0v958h926v-958h-324v700h-279v-700h-323z" />
<glyph unicode="&#x440;" horiz-adv-x="1314" d="M121 -578v1536h323v-114q49 61 134.5 100t183.5 39q201 0 339 -145.5t138 -358.5t-138 -358.5t-339 -145.5q-98 0 -183 39t-135 101v-693h-323zM456.5 479q0.5 -94 66 -159.5t159.5 -65.5t159.5 65.5t65.5 159.5t-65.5 160t-159.5 66t-160 -66t-65.5 -160z" />
<glyph unicode="&#x441;" horiz-adv-x="1056" d="M72 479q0 211 154.5 357.5t369.5 146.5q252 0 420 -186l-244 -195q-63 86 -174 86q-80 0 -141.5 -58.5t-61.5 -150.5t61.5 -150.5t141.5 -58.5q111 0 174 86l244 -194q-168 -186 -420 -187q-215 0 -369.5 146.5t-154.5 357.5z" />
<glyph unicode="&#x442;" horiz-adv-x="991" d="M74 700v258h844v-258h-261v-700h-323v700h-260z" />
<glyph unicode="&#x443;" horiz-adv-x="1112" d="M37 932l323 51l197 -569l195 569l323 -51l-567 -1534l-324 53l224 578z" />
<glyph unicode="&#x444;" horiz-adv-x="2064" d="M76 479q0 213 138 358.5t339 145.5q98 0 183 -39t134 -100v692h324v-692q49 61 134 100t183 39q201 0 339.5 -145.5t138.5 -358.5t-138.5 -358.5t-339.5 -145.5q-98 0 -183 39t-134 101v-693h-324v693q-49 -61 -134 -100.5t-183 -39.5q-201 0 -339 145.5t-138 358.5z M408 479q0 -94 65.5 -159.5t159.5 -66t160 65.5t65.5 160t-66 160t-159.5 66t-159.5 -66t-65.5 -160zM1206 479q0 -94 65.5 -159.5t160 -65.5t160 65.5t65.5 159.5t-65.5 160t-159.5 66t-160 -66t-66 -160z" />
<glyph unicode="&#x445;" horiz-adv-x="1064" d="M29 41l290 455l-264 419l322 68l155 -283l156 283l322 -68l-265 -419l291 -455l-321 -66l-183 318l-182 -318z" />
<glyph unicode="&#x446;" horiz-adv-x="1196" d="M121 0v958h323v-700h279v700h324v-700h106v-475h-324v217h-708z" />
<glyph unicode="&#x447;" horiz-adv-x="1132" d="M100 645v313h324v-264q0 -190 158 -190q66 0 106 22v432h324v-958h-324v299q-86 -51 -213 -51q-158 0 -266.5 104.5t-108.5 292.5z" />
<glyph unicode="&#x448;" horiz-adv-x="1679" d="M121 0v958h323v-700h234v700h323v-700h234v700h324v-958h-1438z" />
<glyph unicode="&#x449;" horiz-adv-x="1708" d="M121 0v958h323v-700h234v700h323v-700h234v700h324v-700h106v-475h-324v217h-1220z" />
<glyph unicode="&#x44a;" horiz-adv-x="1159" d="M51 700v258h535v-264h121q190 0 302.5 -98t112.5 -250q0 -150 -115.5 -248t-299.5 -98h-437v700h-219zM586 238h96q57 0 91 29.5t34 78.5q0 51 -34 81t-91 30h-96v-219z" />
<glyph unicode="&#x44b;" horiz-adv-x="1536" d="M121 0v958h315v-264h121q190 0 303 -98t113 -250q0 -150 -116 -248t-300 -98h-436zM436 238h96q57 0 91 29.5t34 78.5q0 51 -33.5 81t-91.5 30h-96v-219zM1091 0v958h324v-958h-324z" />
<glyph unicode="&#x44c;" horiz-adv-x="1009" d="M121 0v958h315v-264h121q190 0 303 -98t113 -250q0 -150 -116 -248t-300 -98h-436zM436 238h96q57 0 91 29.5t34 78.5q0 51 -33.5 81t-91.5 30h-96v-219z" />
<glyph unicode="&#x44d;" horiz-adv-x="1054" d="M41 162l213 170q76 -92 201 -92q152 0 209 125h-355v229h355q-57 125 -209 125q-125 0 -201 -92l-213 170q168 186 420 186q215 0 368.5 -146.5t153.5 -357.5t-153.5 -357.5t-368.5 -146.5q-252 0 -420 187z" />
<glyph unicode="&#x44e;" horiz-adv-x="1675" d="M121 0v958h323v-354h111q43 166 185.5 272.5t330.5 106.5q223 0 378 -146.5t155 -357.5t-155 -357.5t-378 -146.5q-186 0 -329.5 105.5t-186.5 271.5h-111v-352h-323zM862 479q0 -90 63.5 -149.5t146 -59t145.5 59.5t63 149t-63.5 149.5t-145.5 59.5t-145.5 -59.5 t-63.5 -149.5z" />
<glyph unicode="&#x44f;" horiz-adv-x="1046" d="M35 8l291 357q-94 39 -151.5 112.5t-57.5 165.5q0 135 103.5 225t297.5 90h412v-958h-316v274l-243 -299zM432 622.5q0 -51.5 37 -80t88 -28.5h57v215h-57q-51 0 -88 -27.5t-37 -79z" />
<glyph unicode="&#x451;" horiz-adv-x="1187" d="M72 479q0 213 153.5 358.5t374.5 145.5q213 0 366.5 -145.5t153.5 -358.5q0 -59 -4 -84h-704q20 -68 73.5 -106.5t120.5 -38.5q125 0 195 100l270 -151q-172 -223 -463 -224q-227 0 -381.5 143.5t-154.5 360.5zM244 1288.5q0 57.5 41 98t98 40.5t98 -40.5t41 -98 t-41 -98.5t-98 -41t-98 41t-41 98.5zM414 604h393q-20 55 -73.5 90t-123 35t-123 -35t-73.5 -90zM653 1288.5q0 57.5 41 98t98.5 40.5t98.5 -40.5t41 -98t-41 -98.5t-98.5 -41t-98.5 41t-41 98.5z" />
<glyph unicode="&#x2000;" horiz-adv-x="953" />
<glyph unicode="&#x2001;" horiz-adv-x="1906" />
<glyph unicode="&#x2002;" horiz-adv-x="953" />
<glyph unicode="&#x2003;" horiz-adv-x="1906" />
<glyph unicode="&#x2004;" horiz-adv-x="635" />
<glyph unicode="&#x2005;" horiz-adv-x="476" />
<glyph unicode="&#x2006;" horiz-adv-x="317" />
<glyph unicode="&#x2007;" horiz-adv-x="317" />
<glyph unicode="&#x2008;" horiz-adv-x="238" />
<glyph unicode="&#x2009;" horiz-adv-x="381" />
<glyph unicode="&#x200a;" horiz-adv-x="105" />
<glyph unicode="&#x2010;" horiz-adv-x="831" d="M111 547v266h610v-266h-610z" />
<glyph unicode="&#x2011;" horiz-adv-x="831" d="M111 547v266h610v-266h-610z" />
<glyph unicode="&#x2012;" horiz-adv-x="831" d="M111 547v266h610v-266h-610z" />
<glyph unicode="&#x2013;" horiz-adv-x="1024" d="M0 547v266h1024v-266h-1024z" />
<glyph unicode="&#x2014;" horiz-adv-x="2048" d="M0 547v266h2048v-266h-2048z" />
<glyph unicode="&#x2018;" horiz-adv-x="643" d="M117 983l243 635l248 -39l-153 -651z" />
<glyph unicode="&#x2019;" horiz-adv-x="643" d="M55 995l154 652l338 -56l-244 -635z" />
<glyph unicode="&#x201a;" horiz-adv-x="643" d="M55 -285l154 652l338 -56l-244 -635z" />
<glyph unicode="&#x201c;" horiz-adv-x="1146" d="M117 983l243 635l248 -39l-153 -651zM621 983l243 635l248 -39l-153 -651z" />
<glyph unicode="&#x201d;" horiz-adv-x="1146" d="M55 997l154 652l338 -56l-244 -635zM559 997l154 652l338 -56l-244 -635z" />
<glyph unicode="&#x201e;" horiz-adv-x="1146" d="M55 -285l154 652l338 -56l-244 -635zM559 -285l154 652l338 -56l-244 -635z" />
<glyph unicode="&#x2022;" horiz-adv-x="954" d="M170 680q0 127 91 217t216 90t216 -90t91 -217t-91 -217t-216 -90t-217 90q-90 90 -90 217z" />
<glyph unicode="&#x2026;" horiz-adv-x="1929" d="M127 172q0 82 57.5 139.5t137 57.5t137 -57.5t57.5 -139.5t-57.5 -139.5t-137.5 -57t-137 57.5t-57 139zM770 172q0 82 57.5 139.5t137 57.5t137 -57.5t57.5 -139.5t-57.5 -139.5t-137.5 -57t-137 57.5t-57 139zM1413 172q0 82 57.5 139.5t137.5 57.5t137 -57.5 t57 -139.5t-57 -139.5t-137.5 -57t-137.5 57.5t-57 139z" />
<glyph unicode="&#x202f;" horiz-adv-x="381" />
<glyph unicode="&#x203e;" horiz-adv-x="1024" d="M0 1229v201h1024v-201h-1024z" />
<glyph unicode="&#x205f;" horiz-adv-x="476" />
<glyph unicode="&#x2116;" horiz-adv-x="2140" d="M135 0v1423l172 35l551 -788v764h348v-1426l-174 -33l-549 787v-762h-348zM1360 1108q0 145 105.5 243.5t253 98.5t251.5 -98q106 -98 106.5 -243.5t-105 -244t-253 -98.5t-253 98.5t-105.5 243.5zM1391 492v165h657v-165h-657zM1589 1108q0 -55 38 -92t91.5 -37t91 37 t37.5 92t-37.5 92t-91 37t-92.5 -37q-37 -37 -37 -92z" />
<glyph unicode="&#x25fc;" horiz-adv-x="983" d="M0 0v983h983v-983h-983z" />
</font>
</defs>
</svg>
