<?xml version="1.0" standalone="no"?>
<!DOCTYPE svg PUBLIC "-//W3C//DTD SVG 1.1//EN" "http://www.w3.org/Graphics/SVG/1.1/DTD/svg11.dtd" >
<svg xmlns="http://www.w3.org/2000/svg">
<metadata></metadata>
<defs>
<font id="core_sans_g45_regular" horiz-adv-x="1228" >
<font-face units-per-em="2048" ascent="1638" descent="-410" />
<missing-glyph horiz-adv-x="614" />
<glyph horiz-adv-x="0" />
<glyph horiz-adv-x="682" />
<glyph horiz-adv-x="0" />
<glyph horiz-adv-x="0" />
<glyph horiz-adv-x="0" />
<glyph unicode="&#x9;" horiz-adv-x="485" />
<glyph unicode="&#xd;" horiz-adv-x="681" />
<glyph horiz-adv-x="0" />
<glyph unicode=" "  horiz-adv-x="614" />
<glyph unicode="&#x09;" horiz-adv-x="614" />
<glyph unicode="&#xa0;" horiz-adv-x="614" />
<glyph unicode="!" horiz-adv-x="606" d="M178 100.5q0 51.5 36 88t89 36.5t89 -36.5t36 -88t-36 -88.5t-89 -37t-90 37q-35 37 -35 88.5zM209 346v1088h188v-1088h-188z" />
<glyph unicode="&#x22;" horiz-adv-x="999" d="M195 1434h208l-38 -557h-132zM596 1434h208l-38 -557h-132z" />
<glyph unicode="#" horiz-adv-x="1361" d="M123 362v154h201v408h-201v153h201v357h168v-357h374v357h168v-357h205v-153h-205v-408h205v-154h-205v-362h-168v362h-374v-362h-168v362h-201zM492 516h374v408h-374v-408z" />
<glyph unicode="$" horiz-adv-x="1083" d="M82 268l147 109q41 -106 123 -170t183 -64q115 0 186.5 69t71.5 181.5t-60.5 189t-214.5 136.5q-170 66 -253 164t-83 243q0 113 64.5 199t177.5 117v162h162v-148q193 -23 282 -184l-133 -98q-70 117 -194 116q-74 0 -122 -46t-48 -116q0 -80 54 -140t181 -111 q197 -78 286 -193t89 -287q0 -162 -94 -274.5t-260 -138.5v-164h-162v162q-129 16 -232.5 91.5t-150.5 194.5z" />
<glyph unicode="%" horiz-adv-x="1910" d="M143.5 1128.5q-0.5 139.5 100 234.5t237.5 95t237.5 -95t100.5 -234.5t-100.5 -234.5t-237.5 -95t-237 94q-100 96 -100.5 235.5zM319.5 1128.5q-0.5 -67.5 47 -114.5t115 -47t114.5 47t47 114.5t-47 114.5t-114.5 47t-114.5 -47t-47.5 -114.5zM391 70l991 1388l136 -96 l-990 -1387zM1092 305q0 139 100 234.5t237.5 95.5t237.5 -96q100 -94 100 -233.5t-100 -235t-237.5 -95.5t-237.5 95.5t-100 234.5zM1268 305.5q0 -67.5 47 -115t114.5 -47.5t114.5 47t47 115t-47 115t-114.5 47t-114.5 -47t-47 -114.5z" />
<glyph unicode="&#x26;" horiz-adv-x="1288" d="M102 360q0 231 285 441q-86 115 -120 184.5t-34 144.5q0 143 93.5 235.5t248.5 92.5q133 0 230.5 -93t97.5 -237q0 -117 -72.5 -201.5t-199.5 -166.5l311 -406q108 90 180 168l105 -137q-90 -98 -178 -168l145 -186l-143 -101l-142 185q-104 -72 -195 -106t-218 -34 q-160 0 -277 113t-117 272zM281 360q0 -94 62.5 -159.5t172.5 -65.5q129 0 291 115l-320 416q-113 -80 -159.5 -152t-46.5 -154zM412 1133q0 -78 116 -238q61 39 97.5 67.5t68 77t31.5 101.5q0 70 -42 116t-110 46q-78 0 -119.5 -47.5t-41.5 -122.5z" />
<glyph unicode="'" horiz-adv-x="598" d="M195 1434h208l-38 -557h-132z" />
<glyph unicode="(" horiz-adv-x="735" d="M205 635q0 483 266 901l135 -80q-213 -383 -213 -821t213 -821l-135 -80q-266 418 -266 901z" />
<glyph unicode=")" horiz-adv-x="735" d="M129 -186q213 383 213 821t-213 821l135 80q266 -418 266 -901t-266 -901z" />
<glyph unicode="*" horiz-adv-x="1118" d="M96 735l58 176l149 -49l184 -84l-20 207v158h184v-158l-22 -207l186 84l150 49l57 -176l-150 -49l-184 -39l127 -137l94 -127l-149 -111l-94 127l-107 187l-106 -187l-95 -127l-149 111l94 127l125 137l-182 39z" />
<glyph unicode="," horiz-adv-x="614" d="M102 -283l144 541l198 -68l-217 -514z" />
<glyph unicode="-" horiz-adv-x="831" d="M123 592v176h586v-176h-586z" />
<glyph unicode="." horiz-adv-x="614" d="M182 100.5q0 51.5 36 88t89 36.5t89 -36.5t36 -88t-36 -88.5t-89 -37t-90 37q-35 37 -35 88.5z" />
<glyph unicode="/" horiz-adv-x="1024" d="M25 -156l833 1688l141 -70l-833 -1687z" />
<glyph unicode="0" d="M139 717q0 211 48.5 373.5t158 265t269 102.5t269 -102.5t158 -265t48.5 -373.5t-48.5 -374t-158 -265.5t-269 -102.5t-269.5 102.5t-159 264.5q-47 164 -47 375zM327.5 717q0.5 -260 71 -417t216 -157t216 157t70.5 417t-70.5 416.5t-216 157t-217.5 -157.5 q-70 -156 -69.5 -416z" />
<glyph unicode="1" d="M211 1182l483 276l39 -12v-1446h-188v1174l-252 -134z" />
<glyph unicode="2" d="M143 37l504 676q156 211 155 344q0 115 -71.5 174t-190.5 59q-70 0 -137.5 -43t-110.5 -121l-137 91q66 113 172.5 177t218.5 64q203 0 324 -110.5t121 -292.5q0 -190 -189 -434l-346 -453h553v-168h-848z" />
<glyph unicode="3" d="M90 225l135 113q123 -195 310 -195q129 0 211.5 80t82.5 203q0 139 -97 232.5t-290 95.5l-22 49l293 463h-531v168h791l26 -39l-337 -525q162 -41 259 -162.5t97 -277.5q0 -184 -127 -319.5t-359 -135.5q-289 0 -442 250z" />
<glyph unicode="4" d="M31 317l846 1141l39 -10v-1002h159v-167h-159v-279h-189v279h-676zM322 446h405v562z" />
<glyph unicode="5" d="M109 225l135 113q113 -195 297 -195q152 0 229.5 88t77.5 213q0 141 -96.5 225.5t-251.5 84.5q-117 -1 -232 -52l-35 21l107 711h647v-168h-493l-56 -361q51 16 119 17q193 0 336 -132.5t143 -332.5q0 -205 -128 -343.5t-357 -138.5q-135 0 -252 64.5t-190 185.5z" />
<glyph unicode="6" d="M139 449q0 76 24.5 143t94.5 180l428 686l141 -88l-289 -463q41 14 103 15q178 0 321 -134.5t143 -339t-143 -339t-339.5 -134.5t-340 134.5t-143.5 339.5zM327 448.5q0 -129.5 85 -217.5t210 -88t209 88q86 88 86 217.5t-85 217.5t-210 88t-210 -88t-85 -217.5z" />
<glyph unicode="7" d="M162 1266v168h885l26 -39l-604 -1420l-170 70l526 1221h-663z" />
<glyph unicode="8" d="M131 432q0 129 69.5 229.5t184.5 155.5q-149 101 -149 273q0 158 107.5 263t270.5 105q166 0 273.5 -105.5t107.5 -262.5q0 -172 -151 -273q115 -55 184.5 -155.5t69.5 -229.5q0 -190 -140.5 -323.5t-343 -133.5t-343 133.5t-140.5 323.5zM319 438q0 -117 86.5 -206 t209 -89t208.5 89.5t86 205.5q0 125 -85 209t-210 84t-210 -84t-85 -209zM424 1094q0 -80 53 -137.5t137 -57.5q86 0 139.5 57.5t53.5 137.5q0 82 -53.5 139t-139.5 57q-84 0 -137 -57t-53 -139z" />
<glyph unicode="9" d="M123 985q0 205 143.5 339t340 134t340 -134t143.5 -339q0 -76 -25 -143.5t-94 -179.5l-428 -687l-142 88l289 463q-41 -14 -102 -14q-178 0 -321.5 134t-143.5 339zM311 985q0 -129 85 -217t210 -88t210 88t85 217t-85 217t-210 88t-211 -88q-84 -88 -84 -217z" />
<glyph unicode=":" horiz-adv-x="614" d="M182 100.5q0 51.5 36 88t89 36.5t89 -36.5t36 -88t-36 -88.5t-89 -37t-90 37q-35 37 -35 88.5zM182 964.5q0 51.5 36 88t89 36.5t89 -36.5t36 -88t-36 -88.5t-89 -37t-90 37q-35 37 -35 88.5z" />
<glyph unicode=";" horiz-adv-x="606" d="M86 -283l144 541l198 -68l-217 -514zM178 964.5q0 51.5 36 88t89 36.5t89 -36.5t36 -88t-36 -88.5t-89 -37t-90 37q-35 37 -35 88.5z" />
<glyph unicode="&#x3c;" horiz-adv-x="1265" d="M143 659v41l901 533l78 -150l-694 -403l694 -404l-78 -149z" />
<glyph unicode="=" horiz-adv-x="1265" d="M143 362v160h979v-160h-979zM143 838v160h979v-160h-979z" />
<glyph unicode="&#x3e;" horiz-adv-x="1265" d="M143 276l695 404l-695 403l78 150l901 -533v-41l-901 -532z" />
<glyph unicode="?" horiz-adv-x="976" d="M57 1251q78 96 189.5 151.5t222.5 55.5q186 0 306 -98t120 -250q0 -143 -84 -236.5t-258 -175.5q-147 -70 -147 -143q0 -76 86 -76q61 0 114 53l88 -131q-86 -86 -202 -86q-121 0 -192 68t-71 178q0 160 207 266q145 74 214 136.5t69 148.5q0 76 -67.5 129t-184.5 53 q-164 0 -274 -145zM336 100.5q0 51.5 37 88t88 36.5t88 -36.5t37 -88t-37 -88.5t-88 -37t-88 37t-37 88.5z" />
<glyph unicode="@" horiz-adv-x="1974" d="M106 560.5q0 231.5 115 438.5t317.5 333t440.5 126q375 0 632 -255t257 -597q0 -203 -106.5 -336t-286.5 -133q-172 0 -226 149q-51 -70 -133 -108.5t-172 -38.5q-172 0 -294 124t-122 296t122 294.5t294 122.5t293 -131v109h158v-551q0 -127 108 -127q106 0 166 86 t60 244q0 303 -214.5 516t-535.5 213q-303 0 -518 -227.5t-215 -546.5q0 -315 220 -542.5t540 -227.5q272 0 489 141l53 -111q-252 -154 -542 -153q-248 0 -457 126t-326 330.5t-117 436zM686 558.5q0 -112.5 81 -194.5t193.5 -82t194.5 82t82 195v10q-4 109 -86 187.5 t-190 78.5q-113 0 -194 -82t-81 -194.5z" />
<glyph unicode="A" horiz-adv-x="1286" d="M31 25l592 1433h41l591 -1433l-176 -50l-153 385h-568l-151 -385zM426 528h432l-215 545z" />
<glyph unicode="B" horiz-adv-x="1087" d="M164 0v1434h293q209 0 327.5 -98.5t118.5 -245.5q0 -111 -61.5 -198t-161.5 -122q150 -31 232.5 -133t82.5 -242q0 -174 -121.5 -284.5t-332.5 -110.5h-377zM352 164h172q133 0 208 72.5t75 185.5q0 111 -80 185.5t-219 74.5h-156v-518zM352 846h119q119 0 181.5 59.5 t62.5 151.5t-62.5 152.5t-185.5 60.5h-115v-424z" />
<glyph unicode="C" horiz-adv-x="1456" d="M102 716.5q0 313.5 220.5 527.5t529.5 214q303 0 522 -207l-127 -127q-162 166 -395 166q-231 0 -396 -166t-165 -407.5t165 -407.5t396 -166q233 0 395 166l127 -127q-219 -207 -522 -207q-309 0 -529.5 214t-220.5 527.5z" />
<glyph unicode="D" horiz-adv-x="1394" d="M164 0v1434h387q313 0 527 -199t214 -518.5t-214 -518t-527 -198.5h-387zM352 168h199q240 0 396.5 151.5t156.5 397.5t-156.5 397.5t-396.5 151.5h-199v-1098z" />
<glyph unicode="E" horiz-adv-x="983" d="M164 0v1434h696v-168h-508v-379h457v-164h-457v-555h529v-168h-717z" />
<glyph unicode="F" horiz-adv-x="911" d="M164 0v1434h686v-168h-498v-400h447v-164h-447v-702h-188z" />
<glyph unicode="G" horiz-adv-x="1613" d="M102 717q0 313 220.5 527t529.5 214q180 0 338 -79t262 -216l-145 -108q-78 109 -198 172t-257 63q-231 0 -396 -166t-165 -407q0 -240 161.5 -407t387.5 -167q203 0 327.5 115t151.5 299h-387v168h590v-59q0 -307 -195.5 -499t-486.5 -192q-303 0 -520.5 215.5 t-217.5 526.5z" />
<glyph unicode="H" horiz-adv-x="1310" d="M164 0v1434h188v-566h606v566h189v-1434h-189v700h-606v-700h-188z" />
<glyph unicode="I" horiz-adv-x="557" d="M184 0v1434h189v-1434h-189z" />
<glyph unicode="J" horiz-adv-x="851" d="M6 135l139 111q55 -102 168 -103q86 0 136.5 75t50.5 208v1008h188v-1002q0 -227 -102.5 -342t-272.5 -115q-92 0 -173 43t-134 117z" />
<glyph unicode="K" horiz-adv-x="1200" d="M164 0v1434h188v-703l600 727l144 -117l-512 -610l585 -622l-143 -134l-674 756v-731h-188z" />
<glyph unicode="L" horiz-adv-x="942" d="M164 0v1434h188v-1266h549v-168h-737z" />
<glyph unicode="M" horiz-adv-x="1900" d="M41 27l418 1431h41l450 -1050l451 1050h41l418 -1431l-185 -52l-280 1049l-424 -1049h-41l-424 1049l-281 -1049z" />
<glyph unicode="N" horiz-adv-x="1509" d="M164 0v1444l49 14l944 -1067v1043h189v-1444l-50 -15l-944 1067v-1042h-188z" />
<glyph unicode="O" horiz-adv-x="1703" d="M102 718q0 313 220 526q220 214 529.5 214t530 -214t220.5 -527.5t-220.5 -527.5t-529.5 -214t-530 213q-220 216 -220 530zM291 716.5q0 -241.5 165 -407.5t396 -166t396 166t165 407.5t-165 407.5t-396 166t-397 -166q-164 -166 -164 -407.5z" />
<glyph unicode="P" horiz-adv-x="1036" d="M164 0v1434h321q219 0 349.5 -120t130.5 -304.5t-130 -304t-350 -119.5h-133v-586h-188zM352 754h129q135 0 215 69.5t80 186t-80 186.5t-215 70h-129v-512z" />
<glyph unicode="Q" horiz-adv-x="1703" d="M102 716.5q0 313.5 220.5 527.5t529.5 214t529.5 -214t220.5 -527q0 -268 -168 -469l159 -158l-118 -115l-158 158q-199 -158 -465 -158q-309 0 -529.5 214t-220.5 527.5zM291 716.5q0 -241.5 165 -407.5t396 -166q188 0 340 117l-246 248l115 110l244 -243 q109 152 108 342q0 242 -165 407.5t-396 165.5t-396 -166t-165 -407.5z" />
<glyph unicode="R" horiz-adv-x="1095" d="M164 0v1434h280q219 0 343 -112t124 -296q0 -266 -249 -367l393 -579l-154 -105l-498 762l15 54h18q127 0 207 66.5t80 170.5q0 106 -81 172t-214 66h-76v-1266h-188z" />
<glyph unicode="S" horiz-adv-x="1083" d="M82 268l147 109q41 -106 123 -170t183 -64q115 0 186.5 69t71.5 181.5t-60.5 189t-214.5 136.5q-170 66 -253 164t-83 243q0 141 98.5 236.5t260.5 95.5q104 0 192 -50t135 -136l-133 -98q-69 116 -192 116h-2q-74 0 -122 -46t-48 -116q0 -80 54 -140t181 -111 q197 -78 286 -193t89 -287q0 -184 -120 -303t-326 -119q-150 0 -275 79t-178 214z" />
<glyph unicode="T" horiz-adv-x="966" d="M41 1266v168h885v-168h-348v-1266h-189v1266h-348z" />
<glyph unicode="U" horiz-adv-x="1314" d="M164 498v936h188v-934q0 -168 85 -262.5t220.5 -94.5t220.5 94.5t85 262.5v934h188v-936q0 -240 -144.5 -381.5t-349 -141.5t-349 141.5t-144.5 381.5z" />
<glyph unicode="V" horiz-adv-x="1286" d="M31 1409l176 49l436 -1098l436 1098l176 -49l-591 -1434h-41z" />
<glyph unicode="W" horiz-adv-x="2023" d="M31 1407l190 51l377 -1055l393 1055h41l393 -1055l377 1055l191 -51l-547 -1432h-41l-393 1016l-394 -1016h-40z" />
<glyph unicode="X" horiz-adv-x="1259" d="M20 74l500 678l-448 610l147 96l410 -559l411 559l148 -96l-449 -610l500 -678l-149 -99l-461 627l-459 -627z" />
<glyph unicode="Y" horiz-adv-x="1216" d="M20 1368l152 90l436 -694l436 694l152 -90l-494 -782v-586h-188v586z" />
<glyph unicode="Z" horiz-adv-x="1034" d="M31 39l655 1227h-569v168h825l23 -39l-658 -1227h686v-168h-940z" />
<glyph unicode="[" horiz-adv-x="708" d="M246 -266v1802h401v-143h-225v-1516h225v-143h-401z" />
<glyph unicode="\" horiz-adv-x="1026" d="M27 1462l141 70l833 -1688l-141 -69z" />
<glyph unicode="]" horiz-adv-x="708" d="M61 -123h226v1516h-226v143h402v-1802h-402v143z" />
<glyph unicode="_" horiz-adv-x="1024" d="M0 -209h1024v-139h-1024v139z" />
<glyph unicode="a" horiz-adv-x="1294" d="M92 479q0 213 147.5 358.5t356.5 145.5q236 0 369 -164v139h176v-958h-176v139q-131 -164 -369 -164q-209 0 -356.5 145.5t-147.5 358.5zM268 478q0 -146 102 -246q102 -102 246 -101.5t246.5 102t102.5 247t-102.5 246.5t-246 101t-245.5 -102q-103 -101 -103 -247z" />
<glyph unicode="b" horiz-adv-x="1294" d="M154 0v1536h176v-717q133 164 368 164q209 0 356.5 -145.5t147.5 -358.5t-147.5 -358.5t-356.5 -145.5q-238 0 -368 164v-139h-176zM330 479.5q0 -145.5 102.5 -247t246 -101.5t245.5 100q102 102 102 248t-102.5 247t-245.5 101t-245.5 -101t-102.5 -246.5z" />
<glyph unicode="c" horiz-adv-x="1032" d="M92 479q0 211 152.5 357.5t365.5 146.5q207 0 357 -137l-117 -117q-98 98 -240 98q-143 0 -242.5 -101t-99.5 -246.5t99.5 -247t242.5 -101.5q141 0 240 98l117 -116q-150 -137 -357 -138q-213 0 -365.5 146.5t-152.5 357.5z" />
<glyph unicode="d" horiz-adv-x="1294" d="M92 479q0 213 147.5 358.5t356.5 145.5q236 0 369 -164v717h176v-1536h-176v139q-131 -164 -369 -164q-209 0 -356.5 145.5t-147.5 358.5zM268 478q0 -146 102 -246q102 -102 246 -101.5t246.5 102t102.5 247t-102.5 246.5t-246 101t-245.5 -102q-103 -101 -103 -247z " />
<glyph unicode="e" horiz-adv-x="1187" d="M92 479q0 209 148.5 356.5t355.5 147.5q209 0 355.5 -142.5t148.5 -361.5q0 -39 -4 -53h-824q18 -135 116.5 -215t225.5 -80q188 0 293 154l137 -95q-164 -215 -430 -215q-223 0 -372.5 140.5t-149.5 363.5zM281 582h630q-29 113 -114.5 179t-200.5 66 q-100 0 -191.5 -65.5t-123.5 -179.5z" />
<glyph unicode="f" horiz-adv-x="698" d="M51 803v155h160v209q0 186 83 289t245 103q164 0 262 -129l-129 -105q-45 78 -133 78q-152 0 -152 -238v-207h285v-155h-285v-803h-176v803h-160z" />
<glyph unicode="g" horiz-adv-x="1294" d="M92 479q0 213 147.5 358.5t356.5 145.5q236 0 369 -164v139h176v-931q0 -604 -547 -605q-270 0 -430 230l135 96q111 -170 297 -170q369 0 369 426v135q-131 -164 -369 -164q-209 0 -356.5 145.5t-147.5 358.5zM268 478q0 -144 102 -246q103 -101 246.5 -101t246 101.5 t102.5 247t-102.5 246.5t-246 101t-245.5 -102q-103 -100 -103 -247z" />
<glyph unicode="h" horiz-adv-x="1099" d="M154 0v1536h176v-664q111 111 266 111q150 0 255 -99.5t105 -256.5v-627h-176v584q0 113 -67.5 178t-159.5 65q-94 0 -158.5 -66.5t-64.5 -166.5v-594h-176z" />
<glyph unicode="i" horiz-adv-x="503" d="M129 1329q0 51 36 87t87 36t87 -36t36 -87t-36 -87t-87 -36t-88 35q-35 37 -35 88zM164 0v958h176v-958h-176z" />
<glyph unicode="j" horiz-adv-x="499" d="M-244 -449l129 105q45 -78 133 -78q152 0 152 238v1142h176v-1144q0 -186 -83 -289t-245 -103q-164 0 -262 129zM133 1329q0 51 36 87t87 36t87 -36t36 -87t-36 -87t-87 -36t-88 35q-35 37 -35 88z" />
<glyph unicode="k" horiz-adv-x="1026" d="M154 0v1536h176v-1536h-176zM330 514l487 469l125 -127l-379 -346l432 -408l-127 -127z" />
<glyph unicode="l" horiz-adv-x="503" d="M164 0v1536h176v-1536h-176z" />
<glyph unicode="m" horiz-adv-x="1726" d="M154 0v958h176v-86q111 111 266 111q201 0 303 -156q131 156 324 156q154 0 257 -99.5t103 -265.5v-618h-176v588q0 106 -65.5 172.5t-161.5 66.5q-90 0 -157 -64.5t-67 -158.5v-604h-176v588q0 106 -65.5 172.5t-161.5 66.5q-92 0 -157.5 -66.5t-65.5 -166.5v-594h-176z " />
<glyph unicode="n" horiz-adv-x="1099" d="M154 0v958h176v-86q111 111 266 111q150 0 255 -99.5t105 -256.5v-627h-176v584q0 113 -67.5 178t-159.5 65q-94 0 -158.5 -66.5t-64.5 -166.5v-594h-176z" />
<glyph unicode="o" horiz-adv-x="1220" d="M92 479q0 211 152.5 357.5t365.5 146.5t365.5 -146.5t152.5 -357.5t-152 -357t-364 -147l-2 1q-212 0 -366 145q-152 147 -152 358zM268 478q0 -146 100 -246q100 -102 243 -101.5t242 102t99 247t-99 246.5t-242.5 101t-243.5 -102q-99 -101 -99 -247z" />
<glyph unicode="p" horiz-adv-x="1294" d="M154 -578v1536h176v-139q131 164 368 164q209 0 356.5 -145.5t147.5 -358.5t-147.5 -358.5t-356.5 -145.5q-235 0 -368 164v-717h-176zM330 479.5q0 -145.5 102.5 -247t246 -101.5t245.5 100q102 102 102 248t-102.5 247t-245.5 101t-245.5 -101t-102.5 -246.5z" />
<glyph unicode="q" horiz-adv-x="1294" d="M92 479q0 213 147.5 358.5t356.5 145.5q238 0 369 -164v139h176v-1536h-176v717q-133 -164 -369 -164q-209 0 -356.5 145.5t-147.5 358.5zM268 478q0 -144 102 -246q103 -101 246.5 -101t246 101.5t102.5 247t-102.5 246.5t-246 101t-245.5 -102q-103 -100 -103 -247z " />
<glyph unicode="r" horiz-adv-x="772" d="M154 0v958h176v-100q106 125 250 125q91 0 161 -31l-49 -161q-66 36 -137 36h-4q-98 0 -159.5 -79.5t-61.5 -200.5v-547h-176z" />
<glyph unicode="s" horiz-adv-x="800" d="M72 188l131 97q69 -154 190 -154q70 0 110 39t40 98q0 63 -42 106.5t-143 84.5q-239 96 -239 269q0 110 78.5 182.5t193.5 72.5q74 0 142.5 -38t105.5 -103l-121 -90q-37 75 -121 75h-2q-43 0 -71.5 -25.5t-28.5 -60.5q0 -47 38 -80.5t126 -70.5q260 -106 260 -309 q0 -133 -85 -219.5t-241 -86.5q-98 0 -187 57.5t-134 155.5z" />
<glyph unicode="t" horiz-adv-x="671" d="M51 803v155h160v271h176v-271h244v-155h-244v-803h-176v803h-160z" />
<glyph unicode="u" horiz-adv-x="1110" d="M154 332v626h176v-583q0 -113 67.5 -178.5t159.5 -65.5q94 0 158.5 66.5t64.5 167.5v593h176v-958h-176v86q-111 -111 -266 -111q-150 0 -255 99.5t-105 257.5z" />
<glyph unicode="v" horiz-adv-x="983" d="M41 930l162 53l289 -676l288 676l162 -53l-430 -955h-41z" />
<glyph unicode="w" horiz-adv-x="1560" d="M20 930l170 53l279 -645l291 645h41l291 -645l278 645l170 -53l-430 -955h-41l-289 666l-288 -666h-41z" />
<glyph unicode="x" horiz-adv-x="948" d="M31 74l336 426l-301 387l135 96l272 -348l275 348l135 -96l-303 -387l338 -426l-140 -99l-305 390l-303 -390z" />
<glyph unicode="y" horiz-adv-x="1013" d="M51 928l168 55l277 -733l301 733l166 -55l-619 -1530l-168 70l232 565z" />
<glyph unicode="z" horiz-adv-x="845" d="M51 37l447 766h-375v155h631l14 -36l-453 -766h480v-156h-729z" />
<glyph unicode="{" horiz-adv-x="788" d="M164 614v41q96 39 136 103.5t40 165.5v307q0 133 83 219t208 86h90v-148h-53q-76 0 -114 -53t-38 -143v-236q0 -217 -180 -321q180 -104 180 -322v-235q0 -90 38 -143.5t114 -53.5h53v-147h-90q-125 0 -208 86t-83 219v307q0 100 -40 164.5t-136 103.5z" />
<glyph unicode="}" horiz-adv-x="788" d="M68 -119h53q76 0 113.5 53.5t37.5 143.5v235q0 217 181 322q-180 104 -181 321v236q0 90 -37.5 143t-113.5 53h-53v148h90q125 0 208 -86t83 -219v-307q0 -100 40 -165t136 -104v-41q-96 -39 -136 -103.5t-40 -164.5v-307q0 -133 -83 -219t-208 -86h-90v147z" />
<glyph unicode="&#xa8;" horiz-adv-x="819" d="M102.5 1329q0.5 47 34 81t80.5 34t81 -34t34 -81t-34 -81t-81 -34t-80 33q-35 35 -34.5 82zM487.5 1329q0.5 47 34 81t80.5 34t81 -34t34 -81t-34 -81t-81 -34t-80 33q-35 35 -34.5 82z" />
<glyph unicode="&#xa9;" horiz-adv-x="1699" d="M109 717q0 307 217 524t524 217t524 -217t217 -524t-217 -524.5t-524 -217t-524 217.5t-217 524zM223.5 717q-0.5 -264 183 -449.5t443.5 -185.5t443.5 185.5t183.5 449.5t-183.5 449.5t-443.5 185t-444 -186.5q-182 -184 -182.5 -448zM471 721q0 162 122 278.5 t288 116.5q160 0 282 -112l-96 -99q-78 82 -186 82q-106 0 -181 -78t-75 -188.5t74.5 -188t181.5 -77.5q109 0 186 82l96 -101q-125 -111 -282 -110q-166 0 -288 116.5t-122 278.5z" />
<glyph unicode="&#xab;" horiz-adv-x="1167" d="M102 622v33l457 346l86 -114l-338 -248l338 -248l-86 -115zM522 622v33l457 346l86 -114l-338 -248l338 -248l-86 -115z" />
<glyph unicode="&#xad;" horiz-adv-x="831" d="M123 592v176h586v-176h-586z" />
<glyph unicode="&#xaf;" horiz-adv-x="1024" d="M0 1260v139h1024v-139h-1024z" />
<glyph unicode="&#xb0;" horiz-adv-x="819" d="M133 1181.5q0 114.5 81 195.5t195.5 81t195.5 -81t81 -195.5t-81 -195.5t-195.5 -81t-196.5 80q-80 82 -80 196.5zM268 1181.5q0 -63.5 40 -105.5t101.5 -42t101.5 42t40 105.5t-40 105.5t-101.5 42t-102.5 -43q-39 -41 -39 -104.5z" />
<glyph unicode="&#xb4;" horiz-adv-x="819" d="M211 1239l291 285l104 -105l-291 -284z" />
<glyph unicode="&#xb7;" horiz-adv-x="614" d="M182 684q0 53 36 89t89 36t89 -36t36 -89t-36 -89t-89 -36t-90 35q-35 37 -35 90z" />
<glyph unicode="&#xba;" horiz-adv-x="901" d="M75.5 1094q0.5 149 112 256.5t263 107.5t263 -107.5t111.5 -257t-111.5 -257t-263 -107t-264.5 106.5q-111 109 -110.5 258zM229 1094q0 -94 63.5 -160t158.5 -66q92 0 156.5 65.5t64.5 160.5q0 92 -64.5 157.5t-157 65.5t-157 -65.5t-64.5 -157.5z" />
<glyph unicode="&#xbb;" horiz-adv-x="1167" d="M102 391l338 248l-338 248l86 114l457 -346v-33l-457 -346zM522 391l338 248l-338 248l86 114l457 -346v-33l-457 -346z" />
<glyph unicode="&#x2c6;" horiz-adv-x="819" d="M98 1239l291 285h41l291 -285l-105 -104l-206 202l-207 -202z" />
<glyph unicode="&#x2dc;" horiz-adv-x="819" d="M74 1255q12 94 70.5 150.5t136.5 56.5q86 0 165 -69q49 -43 89 -43q57 0 69 100l144 -43q-12 -94 -71 -150.5t-136 -56.5q-86 0 -166 70q-49 43 -88 43q-57 0 -70 -101z" />
<glyph unicode="&#x401;" horiz-adv-x="983" d="M164 0v1434h696v-168h-508v-379h457v-164h-457v-555h529v-168h-717zM203 1747q0 47 33.5 81t81 34t81 -34t33.5 -81t-33.5 -81t-80.5 -34t-82 33q-33 35 -33 82zM588 1747q0 47 33.5 81t81 34t81 -34t33.5 -81t-33.5 -81t-80.5 -34t-82 33q-33 35 -33 82z" />
<glyph unicode="&#x410;" horiz-adv-x="1286" d="M31 25l592 1433h41l591 -1433l-176 -50l-153 385h-568l-151 -385zM426 528h432l-215 545z" />
<glyph unicode="&#x411;" horiz-adv-x="1056" d="M164 0v1434h702v-168h-514v-418h133q219 0 349.5 -120t130.5 -304t-130 -304t-350 -120h-321zM352 168h129q135 0 215 69.5t80 186.5t-80 186.5t-215 69.5h-129v-512z" />
<glyph unicode="&#x412;" horiz-adv-x="1087" d="M164 0v1434h293q209 0 327.5 -98.5t118.5 -245.5q0 -111 -61.5 -198t-161.5 -122q150 -31 232.5 -133t82.5 -242q0 -174 -121.5 -284.5t-332.5 -110.5h-377zM352 164h172q133 0 208 72.5t75 185.5q0 111 -80 185.5t-219 74.5h-156v-518zM352 846h119q119 0 181.5 59.5 t62.5 151.5t-62.5 152.5t-185.5 60.5h-115v-424z" />
<glyph unicode="&#x413;" horiz-adv-x="876" d="M164 0v1434h661v-168h-473v-1266h-188z" />
<glyph unicode="&#x414;" horiz-adv-x="1296" d="M20 168h109q109 238 151 512t42 631v123h768v-1266h135v-426h-189v258h-827v-258h-189v426zM326 168h575v1098h-403q0 -672 -172 -1098z" />
<glyph unicode="&#x415;" horiz-adv-x="983" d="M164 0v1434h696v-168h-508v-379h457v-164h-457v-555h529v-168h-717z" />
<glyph unicode="&#x416;" horiz-adv-x="1773" d="M31 100l532 635l-463 619l154 104l539 -727l-613 -756zM793 0v1434h188v-703l539 727l153 -104l-463 -619l533 -635l-150 -125l-612 756v-731h-188z" />
<glyph unicode="&#x417;" horiz-adv-x="1101" d="M82 225l139 107q123 -188 305 -189q123 0 209 89.5t86 205.5q0 125 -85 209t-210 84h-161v168h161q86 0 139.5 57.5t53.5 137.5q0 82 -53.5 139t-143.5 57q-156 0 -248 -160l-139 87q66 115 169.5 178t221.5 63q166 0 273.5 -105.5t107.5 -262.5q0 -172 -151 -273 q115 -55 184.5 -155.5t69.5 -229.5q0 -190 -140.5 -323.5t-343.5 -133.5q-291 0 -444 250z" />
<glyph unicode="&#x418;" horiz-adv-x="1509" d="M164 -10v1444h188v-1043l944 1067l50 -14v-1444h-189v1042l-944 -1067z" />
<glyph unicode="&#x419;" horiz-adv-x="1509" d="M164 -10v1444h188v-1043l944 1067l50 -14v-1444h-189v1042l-944 -1067zM461 1902h156q0 -63 36.5 -114.5t100 -51.5t100.5 51.5t37 114.5h156q0 -129 -84 -221t-209 -92t-209 92t-84 221z" />
<glyph unicode="&#x41a;" horiz-adv-x="1200" d="M164 0v1434h188v-703l600 727l144 -117l-512 -610l585 -622l-143 -134l-674 756v-731h-188z" />
<glyph unicode="&#x41b;" horiz-adv-x="1392" d="M20 113q246 135 261 338l71 983h877v-1434h-189v1266h-516l-61 -820q-12 -166 -97 -276.5t-241 -194.5z" />
<glyph unicode="&#x41c;" horiz-adv-x="1900" d="M41 27l418 1431h41l450 -1050l451 1050h41l418 -1431l-185 -52l-280 1049l-424 -1049h-41l-424 1049l-281 -1049z" />
<glyph unicode="&#x41d;" horiz-adv-x="1310" d="M164 0v1434h188v-566h606v566h189v-1434h-189v700h-606v-700h-188z" />
<glyph unicode="&#x41e;" horiz-adv-x="1703" d="M102.5 716.5q-0.5 313.5 220 527.5t529.5 214t529.5 -214t220.5 -527.5t-220.5 -527.5t-529.5 -214t-530 213q-219 215 -219.5 528.5zM291 716.5q0 -241.5 165 -407.5t396 -166t396 166t165 407.5t-165 407.5t-396 166t-397 -166q-164 -166 -164 -407.5z" />
<glyph unicode="&#x41f;" horiz-adv-x="1302" d="M164 0v1434h975v-1434h-189v1266h-598v-1266h-188z" />
<glyph unicode="&#x420;" horiz-adv-x="1036" d="M164 0v1434h321q219 0 349.5 -120t130.5 -304.5t-130 -304t-350 -119.5h-133v-586h-188zM352 754h129q135 0 215 69.5t80 186t-80 186.5t-215 70h-129v-512z" />
<glyph unicode="&#x421;" horiz-adv-x="1456" d="M102 716.5q0 313.5 220.5 527.5t529.5 214q303 0 522 -207l-127 -127q-162 166 -395 166q-231 0 -396 -166t-165 -407.5t165 -407.5t396 -166q233 0 395 166l127 -127q-219 -207 -522 -207q-309 0 -529.5 214t-220.5 527.5z" />
<glyph unicode="&#x422;" horiz-adv-x="966" d="M41 1266v168h885v-168h-348v-1266h-189v1266h-348z" />
<glyph unicode="&#x423;" horiz-adv-x="1198" d="M37 1376l160 82l421 -737l400 737l160 -82l-758 -1401l-160 82l256 475z" />
<glyph unicode="&#x424;" horiz-adv-x="1761" d="M82 716.5q0 239.5 172 393.5t451 154h81v170h189v-170h82q279 0 450.5 -154t171.5 -393.5t-171.5 -393t-450.5 -153.5h-82v-170h-189v170h-81q-279 0 -451 153.5t-172 393zM270 717q0 -172 119 -275.5t297 -103.5h100v758h-100q-178 0 -297 -103.5t-119 -275.5zM975 338 h100q178 0 297 103.5t119 275.5t-119 275.5t-297 103.5h-100v-758z" />
<glyph unicode="&#x425;" horiz-adv-x="1259" d="M20 74l500 678l-448 610l147 96l410 -559l411 559l148 -96l-449 -610l500 -678l-149 -99l-461 627l-459 -627z" />
<glyph unicode="&#x426;" horiz-adv-x="1345" d="M164 0v1434h188v-1266h598v1266h189v-1266h135v-426h-189v258h-921z" />
<glyph unicode="&#x427;" horiz-adv-x="1140" d="M133 991v443h189v-449q0 -129 66.5 -196.5t186.5 -67.5q133 0 213 49v664h189v-1434h-189v616q-109 -63 -245 -63q-184 0 -297 114.5t-113 323.5z" />
<glyph unicode="&#x428;" horiz-adv-x="1908" d="M164 0v1434h188v-1266h508v1266h189v-1266h507v1266h189v-1434h-1581z" />
<glyph unicode="&#x429;" horiz-adv-x="1951" d="M164 0v1434h188v-1266h508v1266h189v-1266h507v1266h189v-1266h135v-426h-188v258h-1528z" />
<glyph unicode="&#x42a;" horiz-adv-x="1189" d="M31 1266v168h495v-586h133q219 0 349.5 -120t130.5 -304t-130 -304t-350 -120h-321v1266h-307zM526 168h129q135 0 215 69.5t80 186.5t-80 186.5t-215 69.5h-129v-512z" />
<glyph unicode="&#x42b;" horiz-adv-x="1521" d="M164 0v1434h188v-586h133q219 0 349.5 -120t130.5 -304t-130 -304t-350 -120h-321zM352 168h129q135 0 215 69.5t80 186.5t-80 186.5t-215 69.5h-129v-512zM1169 0v1434h189v-1434h-189z" />
<glyph unicode="&#x42c;" horiz-adv-x="1015" d="M164 0v1434h188v-586h133q219 0 349.5 -120t130.5 -304t-130 -304t-350 -120h-321zM352 168h129q135 0 215 69.5t80 186.5t-80 186.5t-215 69.5h-129v-512z" />
<glyph unicode="&#x42d;" horiz-adv-x="1456" d="M82 182l127 127q162 -166 395 -166q209 0 366.5 139.5t188.5 350.5h-819v168h819q-31 211 -188.5 350t-366.5 139q-233 0 -395 -166l-127 127q219 207 522 207q309 0 529.5 -214t220.5 -527.5t-220.5 -527.5t-529.5 -214q-303 0 -522 207z" />
<glyph unicode="&#x42e;" horiz-adv-x="2168" d="M164 0v1434h188v-633h219q31 283 244 470t502 187q309 0 529 -214t220 -527.5t-220 -527.5t-529 -214q-289 0 -502 187.5t-244 470.5h-219v-633h-188zM756 716.5q0 -241.5 164.5 -407.5t396 -166t396.5 166t165 407.5t-165 407.5t-396 166t-397 -166 q-164 -166 -164 -407.5z" />
<glyph unicode="&#x42f;" horiz-adv-x="1095" d="M41 80l393 579q-250 100 -250 367q0 184 124 296t343 112h281v-1434h-189v1266h-75q-133 0 -214 -65.5t-81 -172.5q0 -104 79.5 -170.5t206.5 -66.5h19l14 -54l-497 -762z" />
<glyph unicode="&#x430;" horiz-adv-x="1294" d="M92 479q0 213 147.5 358.5t356.5 145.5q236 0 369 -164v139h176v-958h-176v139q-131 -164 -369 -164q-209 0 -356.5 145.5t-147.5 358.5zM268.5 479.5q-0.5 -145.5 102 -247t246 -101.5t246 101.5t102.5 247t-102.5 246.5t-246 101t-245.5 -102q-102 -100 -102.5 -245.5z " />
<glyph unicode="&#x431;" horiz-adv-x="1245" d="M92 588q0 326 92 525.5t272.5 296.5t479.5 126l27 -160q-346 -31 -496.5 -160t-177.5 -391q139 158 360 158q209 0 356.5 -145.5t147.5 -358.5q0 -215 -149.5 -359.5t-374.5 -144.5q-238 0 -387.5 161t-149.5 452zM281 479.5q0 -145.5 102 -247t245.5 -101.5t245.5 100 q102 102 102.5 248t-102 247t-246 101t-245.5 -101t-102 -246.5z" />
<glyph unicode="&#x432;" horiz-adv-x="983" d="M154 0v958h352q152 0 237.5 -73.5t85.5 -171.5q0 -127 -110 -189q84 -27 135 -90t51 -149q0 -129 -95 -207t-255 -78h-401zM330 156h243q68 0 112 36.5t44 102t-44 102.5t-112 37h-243v-278zM330 586h186q59 0 98 27.5t39 81t-39 81t-98 27.5h-186v-217z" />
<glyph unicode="&#x433;" horiz-adv-x="790" d="M154 0v958h585v-155h-409v-803h-176z" />
<glyph unicode="&#x434;" horiz-adv-x="1073" d="M20 156h95q147 281 147 718v84h635v-802h115v-373h-176v217h-639v-217h-177v373zM303 156h418v647h-291q0 -379 -127 -647z" />
<glyph unicode="&#x435;" horiz-adv-x="1187" d="M92 479q0 209 148.5 356.5t355.5 147.5q209 0 355.5 -142.5t148.5 -361.5q0 -39 -4 -53h-824q18 -135 116.5 -215t225.5 -80q188 0 293 154l137 -95q-164 -215 -430 -215q-223 0 -372.5 140.5t-149.5 363.5zM281 582h630q-29 113 -114.5 179t-200.5 66 q-100 0 -191.5 -65.5t-123.5 -179.5z" />
<glyph unicode="&#x436;" horiz-adv-x="1466" d="M31 88l389 426l-338 354l127 115l436 -469l-487 -539zM645 0v958h176v-444l436 469l127 -115l-337 -354l389 -426l-127 -113l-488 539v-514h-176z" />
<glyph unicode="&#x437;" horiz-adv-x="860" d="M37 154l129 102q88 -125 223 -125q86 0 139.5 41t53.5 115q0 76 -52.5 124t-148.5 48h-141v155h141q70 0 110.5 30t40.5 81q0 45 -39.5 73.5t-111.5 28.5q-104 0 -191 -90l-110 105q59 66 143 103.5t168 37.5q145 0 231.5 -74.5t86.5 -179.5q0 -129 -115 -190 q164 -76 164 -260q0 -123 -101.5 -213.5t-265.5 -90.5q-221 0 -354 179z" />
<glyph unicode="&#x438;" horiz-adv-x="1150" d="M154 -14v972h176v-610l635 635l32 -10v-973h-176v610l-635 -635z" />
<glyph unicode="&#x439;" horiz-adv-x="1150" d="M154 -14v972h176v-610l635 635l32 -10v-973h-176v610l-635 -635zM283 1444h156q0 -63 36.5 -114.5t100 -51.5t100.5 51.5t37 114.5h156q0 -129 -84 -221t-209 -92t-209 92t-84 221z" />
<glyph unicode="&#x43a;" horiz-adv-x="1026" d="M154 0v958h176v-958h-176zM330 514l487 469l125 -127l-379 -346l432 -408l-127 -127z" />
<glyph unicode="&#x43b;" horiz-adv-x="1144" d="M20 113q195 84 209 254l54 591h708v-958h-176v803h-371l-41 -447q-25 -266 -301 -381z" />
<glyph unicode="&#x43c;" horiz-adv-x="1392" d="M41 23l319 960h29l307 -670l308 670h28l320 -960l-166 -48l-195 625l-280 -625h-29l-281 625l-194 -625z" />
<glyph unicode="&#x43d;" horiz-adv-x="1110" d="M154 0v958h176v-356h450v356h176v-958h-176v446h-450v-446h-176z" />
<glyph unicode="&#x43e;" horiz-adv-x="1220" d="M92 479q0 211 152.5 357.5t365.5 146.5t365.5 -146.5t152.5 -357.5t-152.5 -357.5t-365 -146t-366.5 145.5q-152 147 -152 358zM268.5 479.5q-0.5 -145.5 99 -247t243 -101.5t242.5 101.5t99 247t-99 246.5t-242.5 101t-243.5 -102q-98 -100 -98.5 -245.5z" />
<glyph unicode="&#x43f;" horiz-adv-x="1110" d="M154 0v958h802v-958h-176v803h-450v-803h-176z" />
<glyph unicode="&#x440;" horiz-adv-x="1294" d="M154 -578v1536h176v-139q131 164 368 164q209 0 356.5 -145.5t147.5 -358.5t-147.5 -358.5t-356.5 -145.5q-235 0 -368 164v-717h-176zM330 479.5q0 -145.5 102.5 -247t246 -101.5t245.5 100q102 102 102 248t-102.5 247t-245.5 101t-245.5 -101t-102.5 -246.5z" />
<glyph unicode="&#x441;" horiz-adv-x="1032" d="M92 479q0 211 152.5 357.5t365.5 146.5q207 0 357 -137l-117 -117q-98 98 -240 98q-143 0 -242.5 -101t-99.5 -246.5t99.5 -247t242.5 -101.5q141 0 240 98l117 -116q-150 -137 -357 -138q-213 0 -365.5 146.5t-152.5 357.5z" />
<glyph unicode="&#x442;" horiz-adv-x="872" d="M51 803v155h770v-155h-297v-803h-176v803h-297z" />
<glyph unicode="&#x443;" horiz-adv-x="1013" d="M51 928l168 55l277 -733l301 733l166 -55l-619 -1530l-168 70l232 565z" />
<glyph unicode="&#x444;" horiz-adv-x="2105" d="M92 479q0 213 147.5 358.5t356.5 145.5q238 0 369 -164v717h176v-717q131 164 368 164q209 0 356.5 -145.5t147.5 -358.5t-147.5 -358.5t-356.5 -145.5q-236 0 -368 164v-717h-176v717q-133 -164 -369 -164q-209 0 -356.5 145.5t-147.5 358.5zM268.5 479.5 q-0.5 -145.5 102 -247t246 -101.5t246 101.5t102.5 247t-102.5 246.5t-246 101t-245.5 -102q-102 -100 -102.5 -245.5zM1141 479.5q0 -145.5 102.5 -247t246 -101.5t245.5 100q102 102 102 248t-102.5 247t-245.5 101t-245.5 -101t-102.5 -246.5z" />
<glyph unicode="&#x445;" horiz-adv-x="948" d="M31 74l336 426l-301 387l135 96l272 -348l275 348l135 -96l-303 -387l338 -426l-140 -99l-305 390l-303 -390z" />
<glyph unicode="&#x446;" horiz-adv-x="1132" d="M154 0v958h176v-802h450v802h176v-802h115v-373h-176v217h-741z" />
<glyph unicode="&#x447;" horiz-adv-x="1038" d="M123 657v301h176v-278q0 -131 60.5 -197.5t166.5 -66.5q111 0 183 39v503h176v-958h-176v311q-86 -51 -217 -51q-162 0 -265.5 103.5t-103.5 293.5z" />
<glyph unicode="&#x448;" horiz-adv-x="1613" d="M154 0v958h176v-802h389v802h176v-802h389v802h176v-958h-1306z" />
<glyph unicode="&#x449;" horiz-adv-x="1636" d="M154 0v958h176v-802h389v802h176v-802h389v802h176v-802h115v-373h-176v217h-1245z" />
<glyph unicode="&#x44a;" horiz-adv-x="1062" d="M41 803v155h426v-274h170q168 0 271.5 -96t103.5 -245.5t-103.5 -246t-271.5 -96.5h-346v803h-250zM467 156h176q92 0 142.5 54t50.5 132t-50.5 132t-142.5 54h-176v-372z" />
<glyph unicode="&#x44b;" horiz-adv-x="1347" d="M154 0v958h176v-274h170q168 0 271 -96t103 -245.5t-103 -246t-271 -96.5h-346zM330 156h176q92 0 142 54t50 132t-50 132t-142 54h-176v-372zM1018 0v958h176v-958h-176z" />
<glyph unicode="&#x44c;" horiz-adv-x="925" d="M154 0v958h176v-274h170q168 0 271 -96t103 -245.5t-103 -246t-271 -96.5h-346zM330 156h176q92 0 142 54t50 132t-50 132t-142 54h-176v-372z" />
<glyph unicode="&#x44d;" horiz-adv-x="1032" d="M66 113l116 116q98 -98 240 -98q123 0 215 76t119 194h-496v156h496q-27 117 -119 193.5t-215 76.5q-141 0 -240 -98l-116 117q150 137 356 137q213 0 365.5 -146.5t152.5 -357.5t-152.5 -357.5t-365.5 -146.5q-207 0 -356 138z" />
<glyph unicode="&#x44e;" horiz-adv-x="1603" d="M154 0v958h176v-401h151q29 184 174.5 305t337.5 121q213 0 365.5 -146.5t152.5 -357.5t-152.5 -357.5t-365.5 -146.5q-193 0 -338 121t-174 305h-151v-401h-176zM651.5 479.5q-0.5 -145.5 99 -247t243 -101.5t242.5 101.5t99 247t-99 246.5t-242.5 101t-243.5 -102 q-98 -100 -98.5 -245.5z" />
<glyph unicode="&#x44f;" horiz-adv-x="968" d="M72 74l262 327q-84 39 -133 108t-49 148q0 139 93 220t251 81h319v-958h-176v803h-152q-74 0 -116.5 -40t-42.5 -107.5t47 -107.5t133 -40h88l8 -35l-395 -498z" />
<glyph unicode="&#x451;" horiz-adv-x="1187" d="M92 479q0 209 148.5 356.5t355.5 147.5q209 0 355.5 -142.5t148.5 -361.5q0 -39 -4 -53h-824q18 -135 116.5 -215t225.5 -80q188 0 293 154l137 -95q-164 -215 -430 -215q-223 0 -372.5 140.5t-149.5 363.5zM276 1288q0 47 34 81t81 34t81 -34t34 -81t-34 -80.5t-81 -34 t-82 32.5q-33 35 -33 82zM281 582h630q-29 113 -114.5 179t-200.5 66q-100 0 -191.5 -65.5t-123.5 -179.5zM661.5 1288q0.5 47 34 81t80.5 34t81 -34t34 -81t-34 -80.5t-81 -34t-82 32.5q-33 35 -32.5 82z" />
<glyph unicode="&#x2000;" horiz-adv-x="951" />
<glyph unicode="&#x2001;" horiz-adv-x="1902" />
<glyph unicode="&#x2002;" horiz-adv-x="951" />
<glyph unicode="&#x2003;" horiz-adv-x="1902" />
<glyph unicode="&#x2004;" horiz-adv-x="634" />
<glyph unicode="&#x2005;" horiz-adv-x="475" />
<glyph unicode="&#x2006;" horiz-adv-x="317" />
<glyph unicode="&#x2007;" horiz-adv-x="317" />
<glyph unicode="&#x2008;" horiz-adv-x="237" />
<glyph unicode="&#x2009;" horiz-adv-x="380" />
<glyph unicode="&#x200a;" horiz-adv-x="105" />
<glyph unicode="&#x2010;" horiz-adv-x="831" d="M123 592v176h586v-176h-586z" />
<glyph unicode="&#x2011;" horiz-adv-x="831" d="M123 592v176h586v-176h-586z" />
<glyph unicode="&#x2012;" horiz-adv-x="831" d="M123 592v176h586v-176h-586z" />
<glyph unicode="&#x2013;" horiz-adv-x="1024" d="M0 600v160h1024v-160h-1024z" />
<glyph unicode="&#x2014;" horiz-adv-x="2048" d="M0 600v160h2048v-160h-2048z" />
<glyph unicode="&#x2018;" horiz-adv-x="614" d="M170 1106l217 514l125 -41l-143 -541z" />
<glyph unicode="&#x2019;" horiz-adv-x="614" d="M102 1077l144 541l198 -68l-217 -514z" />
<glyph unicode="&#x201a;" horiz-adv-x="614" d="M102 -283l144 541l198 -68l-217 -514z" />
<glyph unicode="&#x201c;" horiz-adv-x="989" d="M170 1106l217 514l125 -41l-143 -541zM545 1106l217 514l125 -41l-143 -541z" />
<glyph unicode="&#x201d;" horiz-adv-x="989" d="M102 1079l144 541l198 -68l-217 -514zM477 1079l144 541l198 -68l-217 -514z" />
<glyph unicode="&#x201e;" horiz-adv-x="989" d="M102 -283l144 541l198 -68l-217 -514zM477 -283l144 541l198 -68l-217 -514z" />
<glyph unicode="&#x2022;" horiz-adv-x="917" d="M205 680q0 104 74.5 179t179 75t179.5 -75t75 -179.5t-75 -179t-179 -74.5t-180 74q-74 76 -74 180z" />
<glyph unicode="&#x2026;" horiz-adv-x="1802" d="M182 100.5q0 51.5 36 88t89 36.5t89 -36.5t36 -88t-36 -88.5t-89 -37t-90 37q-35 37 -35 88.5zM776 100.5q0 51.5 36 88t89 36.5t89 -36.5t36 -88t-36 -88.5t-89 -37t-90 37q-35 37 -35 88.5zM1370 100.5q0 51.5 36 88t89 36.5t89 -36.5t36 -88t-36 -88.5t-89 -37t-90 37 q-35 37 -35 88.5z" />
<glyph unicode="&#x202f;" horiz-adv-x="380" />
<glyph unicode="&#x203e;" horiz-adv-x="1024" d="M0 1260v139h1024v-139h-1024z" />
<glyph unicode="&#x205f;" horiz-adv-x="475" />
<glyph unicode="&#x2116;" horiz-adv-x="2113" d="M164 0v1444l43 14l788 -1046v1022h168v-1444l-43 -15l-788 1047v-1022h-168zM1343.5 1105.5q-0.5 145.5 99 245t245 99.5t245 -99.5t99.5 -244.5t-99.5 -244.5t-245 -99.5t-245.5 98q-98 100 -98.5 245.5zM1362 492v143h653v-143h-653zM1495 1106q0 -88 53.5 -145.5 t139.5 -57.5t139 57.5t53 145.5t-53 145.5t-139.5 57t-139.5 -57.5t-53 -145z" />
<glyph unicode="&#x25fc;" horiz-adv-x="983" d="M0 0v983h983v-983h-983z" />
</font>
</defs>
</svg>
