<?xml version="1.0" standalone="no"?>
<!DOCTYPE svg PUBLIC "-//W3C//DTD SVG 1.1//EN" "http://www.w3.org/Graphics/SVG/1.1/DTD/svg11.dtd" >
<svg xmlns="http://www.w3.org/2000/svg">
<metadata></metadata>
<defs>
<font id="core_sans_g65_bold" horiz-adv-x="1269" >
<font-face units-per-em="2048" ascent="1638" descent="-410" />
<missing-glyph horiz-adv-x="614" />
<glyph horiz-adv-x="0" />
<glyph horiz-adv-x="682" />
<glyph horiz-adv-x="0" />
<glyph horiz-adv-x="0" />
<glyph horiz-adv-x="0" />
<glyph unicode="&#x9;" horiz-adv-x="485" />
<glyph unicode="&#xd;" horiz-adv-x="681" />
<glyph horiz-adv-x="0" />
<glyph unicode=" "  horiz-adv-x="614" />
<glyph unicode="&#x09;" horiz-adv-x="614" />
<glyph unicode="&#xa0;" horiz-adv-x="614" />
<glyph unicode="!" horiz-adv-x="667" d="M162 135.5q0 69.5 49 114.5t123 45t123 -45t49 -115t-49 -115t-123 -45t-123 45.5t-49 115zM184 401v1033h299v-1033h-299z" />
<glyph unicode="&#x22;" horiz-adv-x="1110" d="M186 1434h285l-41 -600h-203zM639 1434h285l-41 -600h-203z" />
<glyph unicode="#" horiz-adv-x="1382" d="M109 326v223h196v336h-196v223h196v326h240v-326h293v326h239v-326h197v-223h-197v-336h197v-223h-197v-326h-239v326h-293v-326h-240v326h-196zM545 551h293v334h-293v-334z" />
<glyph unicode="$" horiz-adv-x="1128" d="M70 227l176 203q51 -88 134 -134t173 -46q84 0 138 49t54 121q0 78 -50 131t-179 108q-184 76 -270 177.5t-86 255.5q0 121 71.5 215t196.5 131v176h225v-164q182 -31 297 -174l-164 -186q-78 102 -190 102q-66 0 -101.5 -29.5t-35.5 -81.5q0 -57 46 -98t173 -92 q186 -76 275 -192.5t89 -286.5q0 -160 -92 -276t-258 -148v-172h-227v168q-252 39 -395 243z" />
<glyph unicode="%" horiz-adv-x="1925" d="M129 1116q0 144 102.5 243t246 99t245.5 -99t102 -242.5t-102 -243t-246 -99.5t-246 98q-102 100 -102 244zM346 1116q0 -55 38 -93t93 -38t93 38t38 93t-38 93t-93 38t-94 -39q-37 -37 -37 -92zM395 82l977 1376l158 -106l-977 -1377zM1100 317.5q0 143.5 102.5 242.5 t246 99t245.5 -100q102 -98 102 -241.5t-102.5 -243t-245.5 -99.5t-245.5 99.5t-102.5 243zM1317 317.5q0 -55.5 38 -93.5t93 -38t92 37q39 39 39 94.5t-38 93.5t-93 38t-93 -38t-38 -93.5z" />
<glyph unicode="&#x26;" horiz-adv-x="1349" d="M86 373q0 231 258 422q-133 182 -133 325q0 150 105.5 244t271.5 94q152 0 261 -96t109 -244q0 -111 -60 -193.5t-189 -174.5l254 -320q88 78 161 170l172 -197q-70 -86 -174 -178l127 -157l-239 -138l-111 142q-176 -96 -342 -97q-215 0 -343 113t-128 285zM373 381 q0 -72 50 -115t132 -43q86 0 186 53l-247 324q-72 -61 -96.5 -110.5t-24.5 -108.5zM483 1114q0 -72 78 -176q123 90 123 182q0 41 -26.5 72t-69.5 31q-49 0 -77 -31t-28 -78z" />
<glyph unicode="'" horiz-adv-x="657" d="M186 1434h285l-41 -600h-203z" />
<glyph unicode="(" horiz-adv-x="792" d="M187 635q0 483 266 901l229 -64q-221 -387 -221 -837.5t221 -837.5l-229 -63q-266 418 -266 901z" />
<glyph unicode=")" horiz-adv-x="792" d="M111 -203q221 387 221 837.5t-221 837.5l229 64q266 -418 266 -901t-266 -901z" />
<glyph unicode="*" horiz-adv-x="1193" d="M92 696l80 244l129 -43l203 -102l-35 225v137h254v-137l-35 -225l203 102l129 43l80 -244l-131 -41l-217 -30l157 -156l80 -113l-207 -147l-77 110l-109 207l-109 -207l-77 -110l-207 147l80 113l157 156l-217 30z" />
<glyph unicode="," horiz-adv-x="634" d="M72 -285l151 612l289 -59l-233 -592z" />
<glyph unicode="-" horiz-adv-x="831" d="M115 561v238h602v-238h-602z" />
<glyph unicode="." horiz-adv-x="634" d="M147.5 147.5q-0.5 69.5 50 119.5t120 50t119.5 -50t50 -119.5t-50 -120t-119.5 -50t-120.5 49.5q-49 51 -49.5 120.5z" />
<glyph unicode="/" horiz-adv-x="1116" d="M14 -160l840 1692l246 -66l-840 -1691z" />
<glyph unicode="0" d="M133 717q0 332 129 536.5t372.5 204.5t372.5 -205t129 -536.5t-129 -536.5t-372.5 -205t-372.5 205t-129 537zM430 717q0 -471 205 -471t205 471t-205 471t-205 -471z" />
<glyph unicode="1" d="M197 1153l538 301l111 -33v-1421h-299v1057l-225 -121z" />
<glyph unicode="2" d="M143 104l480 646q74 98 104.5 158.5t30.5 119.5q0 70 -43 113t-117 43q-147 0 -211 -131l-235 116q68 135 185.5 212t258.5 77q205 0 332 -119.5t127 -308.5q0 -182 -160 -395l-283 -373h467v-262h-889z" />
<glyph unicode="3" d="M109 233l208 162q98 -154 240 -153q104 0 169 57t65 154q0 248 -277 247q-27 0 -39 -4l-65 125l229 348h-436v265h805l61 -107l-313 -457q156 -51 243.5 -162.5t87.5 -271.5q0 -188 -135 -324.5t-370 -136.5q-145 0 -270.5 67t-202.5 191z" />
<glyph unicode="4" d="M45 358l782 1096l177 -16v-910h135v-270h-135v-258h-299v258h-617zM408 526h297v412z" />
<glyph unicode="5" d="M115 231l211 160q86 -147 242 -147q109 0 169 61.5t60 157.5q0 109 -73.5 174t-192.5 65q-95 0 -191 -53l-106 56l108 729h699v-271h-445l-41 -250q10 2 31 2q205 0 356.5 -122.5t151.5 -333.5q0 -209 -135 -346.5t-375 -137.5q-143 0 -268 65.5t-201 190.5z" />
<glyph unicode="6" d="M131 463q0 150 117 330l428 665l276 -84l-295 -459q182 0 343 -123.5t161 -330.5q0 -211 -150.5 -348.5t-359.5 -137.5q-211 0 -365.5 138.5t-154.5 349.5zM426 459q0 -96 63.5 -158.5t155.5 -62.5t156.5 62.5t64.5 158.5q0 94 -64.5 156.5t-156.5 62.5t-155.5 -62.5 t-63.5 -156.5z" />
<glyph unicode="7" d="M172 1163v271h903l59 -107l-559 -1352l-291 68l473 1120h-585z" />
<glyph unicode="8" d="M116 438q0 123 65 220.5t173 150.5q-63 45 -103 115.5t-40 152.5q0 162 119.5 271.5t304 109.5t304.5 -109.5t120 -271.5q0 -82 -40 -152.5t-104 -115.5q109 -53 173.5 -150.5t64.5 -220.5q0 -197 -148.5 -330t-370 -133t-370 133t-148.5 330zM416 459q0 -90 63 -153.5 t155.5 -63.5t156 63.5t63.5 153.5q0 92 -62.5 153.5t-157 61.5t-156.5 -61.5t-62 -153.5zM483 1061q0 -63 43 -107.5t108.5 -44.5t108.5 44.5t43 107.5q0 61 -43 105t-108.5 44t-108.5 -44t-43 -105z" />
<glyph unicode="9" d="M109 973q0 211 150.5 348t358.5 137q211 0 366 -138t155 -349q0 -150 -117 -330l-428 -666l-277 84l295 459q-182 0 -342.5 124t-160.5 331zM403 975q0 -94 64.5 -156.5t157 -62.5t156 62.5t63.5 156.5q0 96 -63.5 158.5t-156 62.5t-157 -62.5t-64.5 -158.5z" />
<glyph unicode=":" horiz-adv-x="634" d="M147.5 147.5q-0.5 69.5 50 119.5t120 50t119.5 -50t50 -119.5t-50 -120t-119.5 -50t-120.5 49.5q-49 51 -49.5 120.5zM147.5 919.5q-0.5 69.5 50 119.5t120 50t119.5 -50t50 -119.5t-50 -120t-119.5 -50t-120.5 49.5q-49 51 -49.5 120.5z" />
<glyph unicode=";" horiz-adv-x="634" d="M72 -285l151 612l289 -59l-233 -592zM147.5 919.5q-0.5 69.5 50 119.5t120 50t119.5 -50t50 -119.5t-50 -120t-119.5 -50t-120.5 49.5q-49 51 -49.5 120.5z" />
<glyph unicode="&#x3c;" horiz-adv-x="1282" d="M137 631v98l942 528l70 -251l-602 -326l602 -326l-70 -252z" />
<glyph unicode="=" horiz-adv-x="1282" d="M135 317v230h1012v-230h-1012zM135 813v230h1012v-230h-1012z" />
<glyph unicode="&#x3e;" horiz-adv-x="1282" d="M135 354l600 326l-600 326l70 251l942 -528v-98l-942 -529z" />
<glyph unicode="?" horiz-adv-x="1054" d="M61 1194q74 123 192 193.5t265 70.5q205 0 332 -99t127 -249q0 -129 -77 -212t-234 -159q-156 -70 -156 -131q0 -59 76 -59q51 0 100 37l68 -150q-96 -70 -215 -69q-123 0 -200 65.5t-77 165.5q0 180 211 285q111 55 161 102t50 102q0 59 -48 91t-128 32 q-133 0 -213 -116zM348 137q0 70 49 116t121 46t121 -46t49 -115.5t-49 -116t-121 -46.5t-121 45q-49 47 -49 117z" />
<glyph unicode="@" horiz-adv-x="1947" d="M92 561.5q0 231.5 115 438t317.5 332.5t440.5 126q375 0 631.5 -255t256.5 -597q0 -209 -108.5 -339t-298.5 -130q-196 1 -266 142q-100 -137 -285 -138q-168 0 -281.5 121t-113.5 297t112.5 296t280.5 120q164 0 278 -119v100h230v-538q0 -139 110 -139q92 0 147.5 87 t55.5 240q0 303 -214 516t-535 213q-303 0 -518.5 -227t-215.5 -547q0 -315 220.5 -542.5t539.5 -227.5q272 0 490 141l53 -110q-252 -154 -543 -154q-248 0 -456.5 126t-325.5 331t-117 436.5zM727 559q0 -90 61.5 -152.5t154 -62t153.5 61.5q61 63 61 153t-61.5 152.5 t-153.5 62.5t-153.5 -62.5t-61.5 -152.5z" />
<glyph unicode="A" horiz-adv-x="1363" d="M33 25l579 1423h140l579 -1423l-289 -50l-112 297h-496l-112 -297zM524 512h316l-158 420z" />
<glyph unicode="B" horiz-adv-x="1153" d="M147 0v1434h369q225 0 353 -105.5t128 -263.5q0 -100 -49 -179t-137 -120q125 -39 192.5 -135t67.5 -225q0 -178 -138 -292t-388 -114h-398zM446 256h93q113 0 173 50t60 140q0 92 -60.5 141.5t-172.5 49.5h-93v-381zM446 883h84q90 0 136.5 40t46.5 107.5t-46 107.5 t-137 40h-84v-295z" />
<glyph unicode="C" horiz-adv-x="1486" d="M90 716.5q0 315.5 223.5 528.5t532.5 213q344 0 571 -241l-217 -185q-139 152 -348 152q-195 0 -329 -134.5t-134 -333t134 -332.5t329 -134q209 0 348 151l217 -184q-227 -242 -571 -242q-309 0 -532.5 213t-223.5 528.5z" />
<glyph unicode="D" horiz-adv-x="1406" d="M147 0v1434h418q319 0 535.5 -199t216.5 -518.5t-216 -518t-536 -198.5h-418zM446 274h125q201 0 324 120t123 323t-123 322.5t-324 119.5h-125v-885z" />
<glyph unicode="E" horiz-adv-x="1030" d="M147 0v1434h768v-275h-469v-248h420v-268h-420v-369h488v-274h-787z" />
<glyph unicode="F" horiz-adv-x="974" d="M147 0v1434h762v-275h-463v-262h410v-274h-410v-623h-299z" />
<glyph unicode="G" horiz-adv-x="1619" d="M90 716.5q0 315.5 224.5 528.5t535.5 213q184 0 344 -80t268 -217l-229 -168q-70 88 -170 139.5t-213 51.5q-190 0 -325.5 -134.5t-135.5 -332.5q0 -203 136.5 -335t320.5 -132q154 0 256 79t133 216h-326v229h631v-115q0 -301 -195.5 -492.5t-498.5 -191.5 q-309 0 -532.5 213t-223.5 528.5z" />
<glyph unicode="H" horiz-adv-x="1366" d="M147 0v1434h299v-527h474v527h299v-1434h-299v633h-474v-633h-299z" />
<glyph unicode="I" horiz-adv-x="630" d="M166 0v1434h299v-1434h-299z" />
<glyph unicode="J" horiz-adv-x="989" d="M2 188l227 160q49 -98 156 -98q158 0 158 223v961h299v-977q0 -231 -120 -356.5t-323 -125.5q-119 0 -225 56.5t-172 156.5z" />
<glyph unicode="K" horiz-adv-x="1284" d="M147 0v1434h299v-705l498 729l252 -127l-444 -598l501 -622l-260 -136l-547 754v-729h-299z" />
<glyph unicode="L" horiz-adv-x="995" d="M147 0v1434h299v-1160h506v-274h-805z" />
<glyph unicode="M" horiz-adv-x="1976" d="M39 25l426 1425h139l385 -942l383 942h139l426 -1425l-299 -52l-233 883l-348 -872h-137l-353 872l-227 -883z" />
<glyph unicode="N" horiz-adv-x="1511" d="M147 0v1430l134 28l784 -893v869h299v-1432l-133 -27l-785 891v-866h-299z" />
<glyph unicode="O" horiz-adv-x="1703" d="M90 716.5q0 315.5 224.5 528.5t537.5 213t537.5 -213t224.5 -528.5t-225 -528.5q-223 -213 -536.5 -213t-538 213t-224.5 528.5zM389 716.5q0 -198.5 133 -333.5q135 -133 330 -133t329 134t134 332.5t-134 333t-329 134.5t-329 -134.5t-134 -333z" />
<glyph unicode="P" horiz-adv-x="1120" d="M147 0v1434h385q242 0 383.5 -132.5t141.5 -331t-141.5 -330.5t-383.5 -132h-86v-508h-299zM446 782h84q106 0 168 47.5t62 141.5t-61.5 141t-168.5 47h-84v-377z" />
<glyph unicode="Q" horiz-adv-x="1703" d="M90 716.5q0 315.5 224.5 528.5t537.5 213t537.5 -213t224.5 -528q0 -254 -154 -451l152 -153l-170 -166l-156 157q-196 -129 -434 -129q-313 0 -537.5 213t-224.5 528.5zM389 716.5q0 -198.5 134 -332.5t329 -134q125 0 231 59l-192 197l170 166l190 -195q63 104 64 240 q0 199 -134 333t-329 134t-329 -134.5t-134 -333z" />
<glyph unicode="R" horiz-adv-x="1193" d="M147 0v1434h390q223 0 366.5 -126t143.5 -325q0 -221 -216 -346l355 -576l-273 -86l-417 750l10 63h37q90 0 148.5 51.5t58.5 139.5q0 90 -60.5 144.5t-157.5 54.5h-88v-1178h-297z" />
<glyph unicode="S" horiz-adv-x="1134" d="M70 227l176 203q125 -180 307 -180q84 0 138 49t54 121q0 78 -50 131t-179 108q-184 76 -270 177.5t-86 255t112.5 260t294.5 106.5q242 0 387 -172l-159 -190q-82 88 -199 88q-137 0 -137 -103q0 -57 46 -98t173 -92q366 -150 366 -477q0 -192 -126.5 -315.5 t-354.5 -123.5q-145 0 -273 68t-220 184z" />
<glyph unicode="T" horiz-adv-x="1048" d="M51 1159v275h946v-275h-323v-1159h-299v1159h-324z" />
<glyph unicode="U" horiz-adv-x="1363" d="M147 522v912h299v-918q0 -129 63.5 -197.5t172.5 -68.5t172.5 68.5t63.5 197.5v918h299v-912q0 -250 -157 -398.5t-378 -148.5t-378 148.5t-157 398.5z" />
<glyph unicode="V" horiz-adv-x="1363" d="M33 1409l289 49l360 -956l360 956l289 -49l-579 -1423h-140z" />
<glyph unicode="W" horiz-adv-x="2064" d="M33 1407l293 51l309 -907l328 899h139l328 -899l309 907l293 -51l-529 -1423h-141l-330 909l-330 -909h-141z" />
<glyph unicode="X" horiz-adv-x="1339" d="M16 63l467 687l-415 618l290 90l312 -471l311 471l291 -90l-416 -618l467 -687l-295 -88l-358 537l-359 -537z" />
<glyph unicode="Y" horiz-adv-x="1335" d="M29 1372l290 86l349 -616l348 616l291 -86l-490 -807v-565h-299v565z" />
<glyph unicode="Z" horiz-adv-x="1134" d="M53 104l568 1055h-490v275h868l48 -109l-560 -1051h580v-274h-965z" />
<glyph unicode="[" horiz-adv-x="792" d="M238 -266v1802h493v-229h-227v-1344h227v-229h-493z" />
<glyph unicode="\" horiz-adv-x="1116" d="M14 1473l248 59l840 -1698l-248 -59z" />
<glyph unicode="]" horiz-adv-x="792" d="M61 -37h228v1344h-228v229h494v-1802h-494v229z" />
<glyph unicode="_" horiz-adv-x="1024" d="M0 -188h1024v-181h-1024v181z" />
<glyph unicode="a" horiz-adv-x="1304" d="M78 479q0 213 140 358.5t343 145.5q219 0 338 -149v124h270v-958h-270v125q-119 -150 -338 -150q-203 0 -343 145.5t-140 358.5zM348 479.5q0 -114.5 79 -185.5t193.5 -71t192.5 70q80 72 80 186.5t-79 185t-193.5 70.5t-193.5 -70.5t-79 -185z" />
<glyph unicode="b" horiz-adv-x="1304" d="M135 0v1536h271v-702q118 149 334 150q1 0 3 -1q203 0 343.5 -145.5t140.5 -358.5t-140.5 -358.5t-343.5 -145.5q-219 0 -337 150v-125h-271zM490 294q78 -71 193.5 -71t194 71t78.5 185.5t-78 184.5q-79 72 -194 72h-2q-114 0 -193 -72q-78 -70 -78 -183q0 -116 79 -187 z" />
<glyph unicode="c" horiz-adv-x="1048" d="M78 479q0 211 153.5 357.5t370.5 146.5q233 0 397 -170l-194 -168q-74 90 -201 90q-104 0 -179 -72.5t-75 -183t75 -183.5t179 -73q127 0 201 90l194 -168q-164 -170 -397 -170q-217 0 -370.5 146.5t-153.5 357.5z" />
<glyph unicode="d" horiz-adv-x="1304" d="M78 479q0 213 140 358.5t343 145.5q219 0 338 -149v702h270v-1536h-270v125q-119 -150 -338 -150q-203 0 -343 145.5t-140 358.5zM348 479.5q0 -114.5 79 -185.5t193.5 -71t192.5 70q80 72 80 186.5t-79 185t-193.5 70.5t-193.5 -70.5t-79 -185z" />
<glyph unicode="e" horiz-adv-x="1187" d="M78 479q0 213 151.5 358.5t368.5 145.5q211 0 362.5 -146.5t153.5 -361.5q0 -45 -6 -76h-748q25 -86 92.5 -132t157.5 -46q143 0 230 117l219 -141q-164 -221 -449 -222q-225 0 -378.5 144.5t-153.5 359.5zM367 594h479q-20 70 -87 109.5t-155 39.5q-78 0 -144 -40.5 t-93 -108.5z" />
<glyph unicode="f" horiz-adv-x="784" d="M55 711v247h154v193q0 193 95 300.5t267 107.5q186 0 310 -150l-172 -156q-41 57 -111 58q-119 0 -119 -176v-177h264v-247h-264v-711h-270v711h-154z" />
<glyph unicode="g" horiz-adv-x="1304" d="M78 479q0 213 140 358.5t343 145.5q219 0 338 -149v124h270v-929q0 -313 -151.5 -460t-409.5 -147q-285 0 -456 224l186 155q102 -143 266 -143q135 0 215 84t80 262v121q-119 -150 -338 -150q-203 0 -343 145.5t-140 358.5zM348 479.5q0 -114.5 79 -185.5t193.5 -71 t192.5 70q80 72 80 186.5t-79 185t-193.5 70.5t-193.5 -70.5t-79 -185z" />
<glyph unicode="h" horiz-adv-x="1146" d="M135 0v1536h271v-680q109 127 280 127q141 0 237.5 -97.5t96.5 -256.5v-629h-270v565q0 82 -48.5 132.5t-124 50.5t-123.5 -50.5t-48 -132.5v-565h-271z" />
<glyph unicode="i" horiz-adv-x="561" d="M115 1325q0 68 49 116t116.5 48t116.5 -48t49 -116t-49 -117q-49 -47 -116.5 -47t-116.5 48t-49 116zM145 0v958h271v-958h-271z" />
<glyph unicode="j" horiz-adv-x="579" d="M-270 -424l182 160q49 -78 129 -78q131 0 131 192v1108h270v-1112q0 -199 -102 -311.5t-287 -112.5q-199 0 -323 154zM141 1325q0 68 49.5 116t117 48t116.5 -48t49 -116t-49 -117q-49 -47 -116.5 -47t-117 48t-49.5 116z" />
<glyph unicode="k" horiz-adv-x="1118" d="M133 0v1536h270v-999l435 446l213 -135l-351 -342l392 -395l-222 -136l-467 506v-481h-270z" />
<glyph unicode="l" horiz-adv-x="557" d="M143 0v1536h271v-1536h-271z" />
<glyph unicode="m" horiz-adv-x="1761" d="M135 0v958h271v-102q109 127 280 127q88 0 162 -41t119 -113q129 154 333 154q141 0 237.5 -97.5t96.5 -256.5v-629h-270v565q0 82 -48 132.5t-124 50.5q-74 0 -123 -48.5t-49 -126.5v-573h-270v565q0 82 -48.5 132.5t-124 50.5t-123.5 -50.5t-48 -132.5v-565h-271z" />
<glyph unicode="n" horiz-adv-x="1146" d="M135 0v958h271v-102q109 127 280 127q141 0 237.5 -97.5t96.5 -256.5v-629h-270v565q0 82 -48.5 132.5t-124 50.5t-123.5 -50.5t-48 -132.5v-565h-271z" />
<glyph unicode="o" horiz-adv-x="1216" d="M232 838q154 146 376.5 145.5t376.5 -146t154 -358.5t-154 -359q-153 -145 -375 -145q-1 1 -2 1q-223 0 -377 145t-154 357q1 214 155 360zM348 479.5q0 -108.5 77 -182.5t183.5 -74t183 74t76.5 182.5t-76 182.5q-78 74 -184 74h-1q-106 0 -183 -74q-76 -74 -76 -182.5z " />
<glyph unicode="p" horiz-adv-x="1304" d="M135 -578v1536h271v-124q118 149 334 149h3q203 0 343.5 -145.5t140.5 -358.5t-140.5 -358.5t-343.5 -145.5q-219 0 -337 150v-703h-271zM490 294q79 -71 194 -71t193.5 71t78.5 185.5t-78.5 185t-193.5 71.5h-2q-114 0 -193 -72q-78 -70 -78 -183q0 -116 79 -187z" />
<glyph unicode="q" horiz-adv-x="1304" d="M78 479q0 213 140 358.5t343 145.5q219 0 338 -149v124h270v-1536h-270v703q-119 -150 -338 -150q-203 0 -343 145.5t-140 358.5zM348 479.5q0 -114.5 79 -185.5t193.5 -71t192.5 70q80 72 80 186.5t-79 185t-193.5 70.5t-193.5 -70.5t-79 -185z" />
<glyph unicode="r" horiz-adv-x="839" d="M135 0v958h271v-110q98 135 253 135q90 0 160 -35l-76 -250q-63 37 -139 37q-96 0 -147 -72.5t-51 -191.5v-471h-271z" />
<glyph unicode="s" horiz-adv-x="833" d="M59 152l144 161q78 -118 176 -118q51 0 80.5 25.5t29.5 66.5q0 47 -28.5 76.5t-104.5 60.5q-241 100 -241 289q0 119 86 194.5t221 75.5q168 0 283 -125l-134 -151q-47 59 -110 59q-76 0 -76 -55q0 -33 28.5 -55.5t106.5 -55.5q242 -104 242 -309q0 -137 -91 -226.5 t-257 -89.5q-225 0 -355 177z" />
<glyph unicode="t" horiz-adv-x="743" d="M55 711v247h154v271h270v-271h223v-247h-223v-711h-270v711h-154z" />
<glyph unicode="u" horiz-adv-x="1155" d="M135 330v628h271v-565q0 -82 48 -132t123.5 -50t124 50t48.5 132v565h270v-958h-270v102q-109 -127 -281 -127q-141 0 -237.5 97.5t-96.5 257.5z" />
<glyph unicode="v" horiz-adv-x="1032" d="M33 932l266 51l217 -567l217 567l266 -51l-417 -948h-131z" />
<glyph unicode="w" horiz-adv-x="1617" d="M23 930l266 53l211 -569l243 561h131l244 -561l211 569l266 -53l-421 -946h-130l-235 573l-236 -573h-129z" />
<glyph unicode="x" horiz-adv-x="1028" d="M33 55l305 441l-277 405l256 82l197 -307l197 307l256 -82l-277 -405l305 -441l-256 -80l-225 342l-225 -342z" />
<glyph unicode="y" horiz-adv-x="1077" d="M43 930l268 53l226 -633l231 633l266 -53l-583 -1532l-269 59l226 572z" />
<glyph unicode="z" horiz-adv-x="901" d="M59 80l357 631h-293v247h661l31 -84l-360 -626h381v-248h-744z" />
<glyph unicode="{" horiz-adv-x="868" d="M156 590v90q176 61 176 268v225q0 164 96 263.5t252 99.5h123v-229h-45q-160 0 -160 -197v-154q0 -219 -188 -321q188 -102 188 -322v-153q0 -197 160 -197h45v-229h-123q-156 0 -252 99t-96 263v225q0 208 -176 269z" />
<glyph unicode="}" horiz-adv-x="868" d="M66 -37h45q160 0 159 197v153q0 219 189 322q-188 102 -189 321v154q0 197 -159 197h-45v229h122q156 0 252.5 -99.5t96.5 -262.5v-226q0 -207 176 -268v-90q-176 -61 -176 -268v-226q0 -164 -96.5 -263t-252.5 -99h-122v229z" />
<glyph unicode="&#xa8;" horiz-adv-x="843" d="M90 1329q0 53 39 92t92 39t92 -39t39 -92t-39 -92t-92 -39t-92 39t-39 92zM492 1329q0 53 38.5 92t92 39t92.5 -39t39 -92t-39 -92t-92.5 -39t-92 39t-38.5 92z" />
<glyph unicode="&#xa9;" horiz-adv-x="1687" d="M102 717q0 307 217.5 524t524.5 217t524 -217t217 -524t-217 -524.5t-524.5 -217t-524.5 217.5t-217 524zM217 717q0 -264 183.5 -449.5t443.5 -185.5t443 185.5t183 449.5t-183 449.5t-443.5 185t-444.5 -186.5q-182 -184 -182 -448zM459 719q0 166 120.5 280.5 t290.5 114.5q184 0 314 -135l-150 -129q-66 78 -157 78q-84 0 -141.5 -59.5t-57.5 -149.5t57.5 -149.5t141.5 -59.5q92 0 157 78l150 -129q-131 -137 -314 -137q-168 0 -289.5 115.5t-121.5 281.5z" />
<glyph unicode="&#xab;" horiz-adv-x="1228" d="M90 602v74l492 358l67 -180l-303 -215l303 -215l-67 -180zM578 602v74l491 358l70 -180l-305 -215l305 -215l-70 -180z" />
<glyph unicode="&#xad;" horiz-adv-x="831" d="M115 561v238h602v-238h-602z" />
<glyph unicode="&#xaf;" horiz-adv-x="1024" d="M0 1241v181h1024v-181h-1024z" />
<glyph unicode="&#xb0;" horiz-adv-x="819" d="M123 1177.5q0 118.5 84 199.5t202.5 81t202.5 -82q84 -80 84 -198.5t-84 -199.5t-202.5 -81t-202.5 81t-84 199.5zM291 1177.5q0 -51.5 33.5 -86t85 -34.5t85 34.5t33.5 86t-33.5 86t-84.5 35t-86 -34.5q-33 -35 -33 -86.5z" />
<glyph unicode="&#xb4;" horiz-adv-x="843" d="M203 1262l313 274l125 -141l-315 -273z" />
<glyph unicode="&#xb7;" horiz-adv-x="634" d="M147.5 682.5q-0.5 69.5 50 119.5t120 50t119.5 -50t50 -119.5t-50 -120t-119.5 -50t-120.5 49.5q-49 51 -49.5 120.5z" />
<glyph unicode="&#xba;" horiz-adv-x="927" d="M82 1089.5q0 151.5 112.5 260t268 108.5t268.5 -108.5t113 -260t-113 -260t-268 -109t-268 108.5t-113 260.5zM289 1089.5q0 -73.5 50 -125t122 -51.5q76 0 126 51.5t50 125t-50 125t-126 51.5q-72 0 -122 -51.5t-50 -125z" />
<glyph unicode="&#xbb;" horiz-adv-x="1228" d="M90 424l305 215l-305 215l68 180l491 -358v-74l-491 -358zM578 424l305 215l-305 215l69 180l492 -358v-74l-492 -358z" />
<glyph unicode="&#x2c6;" horiz-adv-x="843" d="M78 1257l313 277h62l313 -277l-125 -137l-219 193l-219 -193z" />
<glyph unicode="&#x2dc;" horiz-adv-x="843" d="M68 1237q14 115 74.5 178.5t146.5 63.5q84 0 166 -70q51 -41 84 -41q53 0 65 100l172 -43q-14 -115 -74.5 -178t-146.5 -63q-84 -1 -166 69q-51 41 -84 41q-53 0 -65 -100z" />
<glyph unicode="&#x401;" horiz-adv-x="1030" d="M147 0v1434h768v-275h-469v-248h420v-268h-420v-369h488v-274h-787zM197 1747q0 53 38.5 92t92 39t92.5 -39t39 -92t-39 -92t-92.5 -39t-92 39t-38.5 92zM598 1747q0 53 39 92t92 39t92 -39t39 -92t-39 -92t-92 -39t-92 39t-39 92z" />
<glyph unicode="&#x410;" horiz-adv-x="1363" d="M33 25l579 1423h140l579 -1423l-289 -50l-112 297h-496l-112 -297zM524 512h316l-158 420z" />
<glyph unicode="&#x411;" horiz-adv-x="1116" d="M147 0v1434h799v-275h-500v-233h86q242 0 383.5 -132t141.5 -331t-141.5 -331t-383.5 -132h-385zM446 274h84q106 0 168 47.5t62 141.5t-61.5 141t-168.5 47h-84v-377z" />
<glyph unicode="&#x412;" horiz-adv-x="1153" d="M147 0v1434h369q225 0 353 -105.5t128 -263.5q0 -100 -49 -179t-137 -120q125 -39 192.5 -135t67.5 -225q0 -178 -138 -292t-388 -114h-398zM446 256h93q113 0 173 50t60 140q0 92 -60.5 141.5t-172.5 49.5h-93v-381zM446 883h84q90 0 136.5 40t46.5 107.5t-46 107.5 t-137 40h-84v-295z" />
<glyph unicode="&#x413;" horiz-adv-x="935" d="M147 0v1434h738v-275h-439v-1159h-299z" />
<glyph unicode="&#x414;" horiz-adv-x="1341" d="M20 -258v532h107q184 422 184 1037v123h846v-1160h129v-532h-299v258h-668v-258h-299zM436 274h422v885h-264q-11 -512 -158 -885z" />
<glyph unicode="&#x415;" horiz-adv-x="1030" d="M147 0v1434h768v-275h-469v-248h420v-268h-420v-369h488v-274h-787z" />
<glyph unicode="&#x416;" horiz-adv-x="1908" d="M31 111l444 622l-391 598l256 127l465 -729l-514 -754zM805 0v1434h299v-705l465 729l256 -127l-391 -598l444 -622l-260 -136l-514 754v-729h-299z" />
<glyph unicode="&#x417;" horiz-adv-x="1138" d="M70 223l225 170q96 -143 244 -143q98 0 158.5 56t60.5 143q0 94 -62.5 145t-171.5 51h-137v275h105q80 0 127 36.5t47 98.5q0 57 -41 93t-109 36q-47 0 -93 -30t-75 -81l-223 135q74 119 184.5 184.5t241.5 65.5q180 0 296 -104.5t116 -255.5q0 -182 -158 -281 q117 -53 184.5 -152.5t67.5 -232.5q0 -193 -142.5 -325t-365.5 -132q-305 0 -479 248z" />
<glyph unicode="&#x418;" horiz-adv-x="1511" d="M147 2v1432h299v-869l785 893l133 -28v-1430h-299v866l-784 -891z" />
<glyph unicode="&#x419;" horiz-adv-x="1511" d="M147 2v1432h299v-869l785 893l133 -28v-1430h-299v866l-784 -891zM447 1906h192q0 -55 32 -96t85 -41t85 41t32 96h192q0 -139 -89 -232t-220 -93t-220 93t-89 232z" />
<glyph unicode="&#x41a;" horiz-adv-x="1284" d="M147 0v1434h299v-705l498 729l252 -127l-444 -598l501 -622l-260 -136l-547 754v-729h-299z" />
<glyph unicode="&#x41b;" horiz-adv-x="1454" d="M14 90q240 254 269 658l51 686h973v-1434h-299v1159h-390l-30 -395q-20 -272 -92 -463.5t-211 -325.5z" />
<glyph unicode="&#x41c;" horiz-adv-x="1976" d="M39 25l426 1425h139l385 -942l383 942h139l426 -1425l-299 -52l-233 883l-348 -872h-137l-353 872l-227 -883z" />
<glyph unicode="&#x41d;" horiz-adv-x="1366" d="M147 0v1434h299v-527h474v527h299v-1434h-299v633h-474v-633h-299z" />
<glyph unicode="&#x41e;" horiz-adv-x="1703" d="M90 716.5q0 315.5 224.5 528.5t537.5 213t537.5 -213t224.5 -528.5t-225 -528.5q-223 -213 -536.5 -213t-538 213t-224.5 528.5zM389 716.5q0 -198.5 133 -333.5q135 -133 330 -133t329 134t134 332.5t-134 333t-329 134.5t-329 -134.5t-134 -333z" />
<glyph unicode="&#x41f;" horiz-adv-x="1366" d="M147 0v1434h1072v-1434h-299v1159h-474v-1159h-299z" />
<glyph unicode="&#x420;" horiz-adv-x="1120" d="M147 0v1434h385q242 0 383.5 -132.5t141.5 -331t-141.5 -330.5t-383.5 -132h-86v-508h-299zM446 782h84q106 0 168 47.5t62 141.5t-61.5 141t-168.5 47h-84v-377z" />
<glyph unicode="&#x421;" horiz-adv-x="1486" d="M90 716.5q0 315.5 223.5 528.5t532.5 213q344 0 571 -241l-217 -185q-139 152 -348 152q-195 0 -329 -134.5t-134 -333t134 -332.5t329 -134q209 0 348 151l217 -184q-227 -242 -571 -242q-309 0 -532.5 213t-223.5 528.5z" />
<glyph unicode="&#x422;" horiz-adv-x="1048" d="M51 1159v275h946v-275h-323v-1159h-299v1159h-324z" />
<glyph unicode="&#x423;" horiz-adv-x="1327" d="M35 1384l293 74l346 -641l338 641l293 -74l-746 -1409l-293 70l252 479z" />
<glyph unicode="&#x424;" horiz-adv-x="1814" d="M74 717q0 248 177 400.5t447 152.5h60v164h299v-164h59q270 0 447.5 -152.5t177.5 -400.5t-177.5 -400.5t-447.5 -152.5h-59v-164h-299v164h-60q-270 0 -447 152.5t-177 400.5zM373 717q0 -125 90 -203t235 -78h60v561h-60q-145 0 -235 -77.5t-90 -202.5zM1057 436h59 q145 0 235.5 78t90.5 203t-90 202.5t-236 77.5h-59v-561z" />
<glyph unicode="&#x425;" horiz-adv-x="1339" d="M16 63l467 687l-415 618l290 90l312 -471l311 471l291 -90l-416 -618l467 -687l-295 -88l-358 537l-359 -537z" />
<glyph unicode="&#x426;" horiz-adv-x="1402" d="M147 0v1434h299v-1160h474v1160h299v-1160h129v-532h-299v258h-902z" />
<glyph unicode="&#x427;" horiz-adv-x="1228" d="M121 983v451h299v-371q0 -244 205 -244q100 0 157 37v578h299v-1434h-299v608q-96 -63 -245 -63q-178 0 -297 116.5t-119 321.5z" />
<glyph unicode="&#x428;" horiz-adv-x="1961" d="M147 0v1434h299v-1160h385v1160h299v-1160h386v1160h299v-1434h-1668z" />
<glyph unicode="&#x429;" horiz-adv-x="1998" d="M147 0v1434h299v-1160h385v1160h299v-1160h386v1160h299v-1160h129v-532h-299v258h-1498z" />
<glyph unicode="&#x42a;" horiz-adv-x="1284" d="M37 1159v275h592v-508h86q242 0 383 -132t141 -331t-141.5 -331t-382.5 -132h-385v1159h-293zM629 274h84q106 0 167.5 47.5t61.5 141.5t-61.5 141t-167.5 47h-84v-377z" />
<glyph unicode="&#x42b;" horiz-adv-x="1671" d="M147 0v1434h299v-508h86q242 0 383.5 -132t141.5 -331t-141.5 -331t-383.5 -132h-385zM446 274h84q106 0 168 47.5t62 141.5t-61.5 141t-168.5 47h-84v-377zM1225 0v1434h299v-1434h-299z" />
<glyph unicode="&#x42c;" horiz-adv-x="1101" d="M147 0v1434h299v-508h86q242 0 383.5 -132t141.5 -331t-141.5 -331t-383.5 -132h-385zM446 274h84q106 0 168 47.5t62 141.5t-61.5 141t-168.5 47h-84v-377z" />
<glyph unicode="&#x42d;" horiz-adv-x="1486" d="M70 217l217 184q139 -152 348 -151q158 0 279.5 91t164.5 239h-684v274h684q-43 147 -164.5 238.5t-279.5 91.5q-209 0 -348 -152l-217 185q227 242 571 241q309 0 532.5 -213t223.5 -528.5t-223.5 -528.5t-532.5 -213q-344 0 -571 242z" />
<glyph unicode="&#x42e;" horiz-adv-x="2232" d="M147 0v1434h299v-580h185q49 264 261 434t488 170q313 0 537.5 -213t224.5 -528.5t-224.5 -528.5t-537.5 -213q-276 0 -488 170t-261 435h-185v-580h-299zM918 716.5q0 -198.5 133 -333.5q135 -133 329.5 -133t328.5 134t134 332.5t-134 333t-328.5 134.5t-328.5 -134.5 t-134 -333z" />
<glyph unicode="&#x42f;" horiz-adv-x="1200" d="M14 61l355 576q-215 125 -215 346q0 199 143 325t367 126h389v-1434h-297v1178h-88q-96 0 -156.5 -54.5t-60.5 -144.5q0 -88 58 -139.5t148 -51.5h37l11 -63l-418 -750z" />
<glyph unicode="&#x430;" horiz-adv-x="1304" d="M78 479q0 213 140 358.5t343 145.5q219 0 338 -149v124h270v-958h-270v125q-119 -150 -338 -150q-203 0 -343 145.5t-140 358.5zM348 479.5q0 -114.5 79 -185.5t193.5 -71t192.5 70q80 72 80 186.5t-79 185t-193.5 70.5t-193.5 -70.5t-79 -185z" />
<glyph unicode="&#x431;" horiz-adv-x="1239" d="M90 586q0 467 197.5 689t656.5 261l43 -258q-295 -23 -427 -123.5t-157 -286.5q106 102 279 103q201 0 340 -143.5t139 -348.5q0 -213 -151.5 -358.5t-378.5 -145.5q-240 0 -390.5 161t-150.5 450zM370.5 479.5q0.5 -108.5 77 -182.5t183 -74t183.5 74t77 182.5t-77 182 t-183.5 74t-184.5 -73.5q-76 -74 -75.5 -182.5z" />
<glyph unicode="&#x432;" horiz-adv-x="1001" d="M135 0v958h408q152 0 237.5 -73.5t85.5 -171.5q0 -127 -110 -189q84 -27 135 -90t51 -149q0 -129 -95 -207t-255 -78h-457zM406 221h155q111 0 111 84t-111 84h-155v-168zM406 598h110q92 0 92 69.5t-92 69.5h-110v-139z" />
<glyph unicode="&#x433;" horiz-adv-x="821" d="M135 0v958h631v-245h-360v-713h-271z" />
<glyph unicode="&#x434;" horiz-adv-x="1107" d="M27 -217v450h88q145 291 145 641v84h690v-725h109v-450h-271v217h-491v-217h-270zM406 233h274v490h-160q-16 -259 -114 -490z" />
<glyph unicode="&#x435;" horiz-adv-x="1187" d="M78 479q0 213 151.5 358.5t368.5 145.5q211 0 362.5 -146.5t153.5 -361.5q0 -45 -6 -76h-748q25 -86 92.5 -132t157.5 -46q143 0 230 117l219 -141q-164 -221 -449 -222q-225 0 -378.5 144.5t-153.5 359.5zM367 594h479q-20 70 -87 109.5t-155 39.5q-78 0 -144 -40.5 t-93 -108.5z" />
<glyph unicode="&#x436;" horiz-adv-x="1634" d="M27 78l376 430l-335 373l237 102l377 -428v403h270v-403l377 428l238 -102l-336 -373l377 -430l-246 -103l-410 490v-465h-270v465l-410 -490z" />
<glyph unicode="&#x437;" horiz-adv-x="864" d="M25 147l204 150q72 -88 179 -88q57 0 92 22.5t35 65.5q0 102 -148 102h-123v226h113q111 0 110.5 67.5t-100.5 67.5q-82 0 -139 -62l-178 129q135 156 348 156q150 0 240 -76t90 -176q0 -121 -103 -190q160 -84 160 -260q0 -127 -107.5 -216.5t-285.5 -89.5 q-238 0 -387 172z" />
<glyph unicode="&#x438;" horiz-adv-x="1181" d="M133 -6v964h270v-512l547 537l99 -18v-965h-271v512l-547 -537z" />
<glyph unicode="&#x439;" horiz-adv-x="1181" d="M133 -6v964h270v-512l547 537l99 -18v-965h-271v512l-547 -537zM281 1448h192q0 -55 32 -96t85 -41t85 41t32 96h192q0 -139 -89 -232t-220 -93t-220 93t-89 232z" />
<glyph unicode="&#x43a;" horiz-adv-x="1118" d="M133 0v958h270v-403l404 428l244 -102l-359 -375l400 -428l-252 -103l-437 490v-465h-270z" />
<glyph unicode="&#x43b;" horiz-adv-x="1191" d="M14 86q168 141 187 336l53 536h803v-958h-271v713h-274l-33 -316q-29 -266 -223 -422z" />
<glyph unicode="&#x43c;" horiz-adv-x="1474" d="M23 16l354 957h88l272 -539l273 539h88l354 -957l-264 -41l-170 471l-236 -462h-90l-235 462l-170 -471z" />
<glyph unicode="&#x43d;" horiz-adv-x="1146" d="M133 0v958h270v-321h340v321h271v-958h-271v391h-340v-391h-270z" />
<glyph unicode="&#x43e;" horiz-adv-x="1216" d="M77.5 479q0.5 213 154 358.5t376.5 145.5t377 -145.5t154 -358.5t-154 -358.5t-377 -145t-377 145.5t-153.5 358zM348 479.5q0 -108.5 77 -182.5t183.5 -74t183 74t76.5 182.5t-76.5 182t-183 74t-184.5 -73.5q-76 -74 -76 -182.5z" />
<glyph unicode="&#x43f;" horiz-adv-x="1146" d="M133 0v958h881v-958h-271v713h-340v-713h-270z" />
<glyph unicode="&#x440;" horiz-adv-x="1304" d="M135 -578v1536h271v-124q119 150 337 149q203 0 343.5 -145.5t140.5 -358.5t-140.5 -358.5t-343.5 -145.5q-219 0 -337 150v-703h-271zM411.5 479.5q0.5 -114.5 79 -185.5t193.5 -71t193.5 71t78.5 185.5t-78.5 185t-193.5 71t-195 -71.5q-78 -70 -77.5 -184.5z" />
<glyph unicode="&#x441;" horiz-adv-x="1048" d="M78 479q0 211 153.5 357.5t370.5 146.5q233 0 397 -170l-194 -168q-74 90 -201 90q-104 0 -179 -72.5t-75 -183t75 -183.5t179 -73q127 0 201 90l194 -168q-164 -170 -397 -170q-217 0 -370.5 146.5t-153.5 357.5z" />
<glyph unicode="&#x442;" horiz-adv-x="921" d="M55 713v245h811v-245h-270v-713h-270v713h-271z" />
<glyph unicode="&#x443;" horiz-adv-x="1077" d="M43 930l268 53l226 -633l231 633l266 -53l-583 -1532l-269 59l226 572z" />
<glyph unicode="&#x444;" horiz-adv-x="2068" d="M78 479q0 213 140 358.5t343 145.5q219 0 338 -149v702h270v-702q119 150 338 149q203 0 343.5 -145.5t140.5 -358.5t-140.5 -358.5t-343.5 -145.5q-219 0 -338 150v-637h-270v637q-119 -150 -338 -150q-203 0 -343 145.5t-140 358.5zM348 479.5q0 -114.5 79 -185.5 t193.5 -71t192.5 70q80 72 80 186.5t-79 185t-193.5 70.5t-193.5 -70.5t-79 -185zM1175.5 479.5q0.5 -114.5 79 -185.5t193.5 -71t193.5 71t78.5 185.5t-78.5 185t-193.5 71t-195 -71.5q-78 -70 -77.5 -184.5z" />
<glyph unicode="&#x445;" horiz-adv-x="1028" d="M33 55l305 441l-277 405l256 82l197 -307l197 307l256 -82l-277 -405l305 -441l-256 -80l-225 342l-225 -342z" />
<glyph unicode="&#x446;" horiz-adv-x="1171" d="M133 0v958h270v-712h340v712h271v-733h108v-442h-270v217h-719z" />
<glyph unicode="&#x447;" horiz-adv-x="1103" d="M111 651v307h270v-241q0 -219 182 -219q82 0 135 28v432h271v-958h-271v303q-80 -51 -213 -51q-156 0 -265 105.5t-109 293.5z" />
<glyph unicode="&#x448;" horiz-adv-x="1658" d="M133 0v958h270v-712h291v712h271v-712h290v712h271v-958h-1393z" />
<glyph unicode="&#x449;" horiz-adv-x="1683" d="M133 0v958h270v-712h291v712h271v-712h290v712h271v-733h108v-442h-270v217h-1231z" />
<glyph unicode="&#x44a;" horiz-adv-x="1134" d="M47 713v245h502v-268h141q182 0 292 -97t110 -249q0 -150 -111 -247t-291 -97h-411v713h-232zM549 225h125q74 0 110.5 32t36.5 87t-36.5 88t-110.5 33h-125v-240z" />
<glyph unicode="&#x44b;" horiz-adv-x="1480" d="M135 0v958h271v-268h141q182 0 291.5 -97t109.5 -249q0 -150 -110.5 -247t-290.5 -97h-412zM406 225h124q74 0 111 32t37 87t-37 88t-111 33h-124v-240zM1075 0v958h271v-958h-271z" />
<glyph unicode="&#x44c;" horiz-adv-x="991" d="M135 0v958h271v-268h141q182 0 291.5 -97t109.5 -249q0 -150 -110.5 -247t-290.5 -97h-412zM406 225h124q74 0 111 32t37 87t-37 88t-111 33h-124v-240z" />
<glyph unicode="&#x44d;" horiz-adv-x="1048" d="M49 145l195 168q74 -90 200 -90q74 0 134.5 37t93.5 100h-379v238h379q-33 63 -93.5 100t-134.5 37q-123 0 -200 -94l-195 172q164 170 397 170q217 0 371 -146.5t154 -357.5t-154 -357.5t-371 -146.5q-233 0 -397 170z" />
<glyph unicode="&#x44e;" horiz-adv-x="1638" d="M135 0v958h271v-368h106q39 172 182.5 282.5t335.5 110.5q223 0 377 -145.5t154 -358.5t-154 -358.5t-377 -145.5q-186 0 -327.5 104.5t-186.5 268.5h-110v-348h-271zM770 479.5q0 -108.5 77 -182.5t183.5 -74t183 74t76.5 182.5t-76.5 182t-183 74t-184.5 -73.5 q-76 -74 -76 -182.5z" />
<glyph unicode="&#x44f;" horiz-adv-x="1013" d="M47 61l215 316q-141 98 -141 256q0 150 109.5 237.5t271.5 87.5h377v-958h-271v717h-108q-49 0 -79 -26.5t-30 -69.5t30 -70t79 -27h71l17 -59l-305 -490z" />
<glyph unicode="&#x451;" horiz-adv-x="1187" d="M78 479q0 213 151.5 358.5t368.5 145.5q211 0 362.5 -146.5t153.5 -361.5q0 -45 -6 -76h-748q25 -86 92.5 -132t157.5 -46q143 0 230 117l219 -141q-164 -221 -449 -222q-225 0 -378.5 144.5t-153.5 359.5zM254 1288q0 53 39 92t92 39t92 -39t39 -92t-39 -92t-92 -39 t-92 39t-39 92zM367 594h479q-20 70 -87 109.5t-155 39.5q-78 0 -144 -40.5t-93 -108.5zM655 1288q0 53 39 92t92.5 39t92.5 -39t39 -92t-39 -92t-92.5 -39t-92.5 39t-39 92z" />
<glyph unicode="&#x2000;" horiz-adv-x="953" />
<glyph unicode="&#x2001;" horiz-adv-x="1906" />
<glyph unicode="&#x2002;" horiz-adv-x="953" />
<glyph unicode="&#x2003;" horiz-adv-x="1906" />
<glyph unicode="&#x2004;" horiz-adv-x="635" />
<glyph unicode="&#x2005;" horiz-adv-x="476" />
<glyph unicode="&#x2006;" horiz-adv-x="317" />
<glyph unicode="&#x2007;" horiz-adv-x="317" />
<glyph unicode="&#x2008;" horiz-adv-x="238" />
<glyph unicode="&#x2009;" horiz-adv-x="381" />
<glyph unicode="&#x200a;" horiz-adv-x="105" />
<glyph unicode="&#x2010;" horiz-adv-x="831" d="M115 561v238h602v-238h-602z" />
<glyph unicode="&#x2011;" horiz-adv-x="831" d="M115 561v238h602v-238h-602z" />
<glyph unicode="&#x2012;" horiz-adv-x="831" d="M115 561v238h602v-238h-602z" />
<glyph unicode="&#x2013;" horiz-adv-x="1024" d="M0 565v229h1024v-229h-1024z" />
<glyph unicode="&#x2014;" horiz-adv-x="2048" d="M0 565v229h2048v-229h-2048z" />
<glyph unicode="&#x2018;" horiz-adv-x="634" d="M135 1026l234 592l206 -39l-151 -612z" />
<glyph unicode="&#x2019;" horiz-adv-x="634" d="M72 1022l151 612l289 -59l-233 -592z" />
<glyph unicode="&#x201a;" horiz-adv-x="634" d="M72 -285l151 612l289 -59l-233 -592z" />
<glyph unicode="&#x201c;" horiz-adv-x="1093" d="M135 1026l234 592l206 -39l-151 -612zM594 1026l234 592l206 -39l-151 -612z" />
<glyph unicode="&#x201d;" horiz-adv-x="1091" d="M72 1024l151 612l289 -59l-233 -592zM528 1024l152 612l289 -59l-234 -592z" />
<glyph unicode="&#x201e;" horiz-adv-x="1091" d="M72 -285l151 612l289 -59l-233 -592zM528 -285l152 612l289 -59l-234 -592z" />
<glyph unicode="&#x2022;" horiz-adv-x="950" d="M186 680q0 119 85 204t204 85t204 -85t85 -204t-86 -205q-84 -84 -203 -84t-204 85t-85 204z" />
<glyph unicode="&#x2026;" horiz-adv-x="1904" d="M147.5 147.5q-0.5 69.5 50 119.5t120 50t119.5 -50t50 -119.5t-50 -120t-119.5 -50t-120.5 49.5q-49 51 -49.5 120.5zM782.5 147.5q-0.5 69.5 50 119.5t120 50t119.5 -50t50 -119.5t-50 -120t-119.5 -50t-120.5 49.5q-49 51 -49.5 120.5zM1417.5 147.5 q-0.5 69.5 50 119.5t120 50t119.5 -50t50 -119.5t-50 -120t-119.5 -50t-120.5 49.5q-49 51 -49.5 120.5z" />
<glyph unicode="&#x202f;" horiz-adv-x="381" />
<glyph unicode="&#x203e;" horiz-adv-x="1024" d="M0 1241v181h1024v-181h-1024z" />
<glyph unicode="&#x205f;" horiz-adv-x="476" />
<glyph unicode="&#x2116;" horiz-adv-x="2134" d="M145 0v1427l127 29l633 -852v852h287v-1427l-127 -29l-633 852v-852h-287zM1356 1106q0 145 102.5 244.5t250 99.5t249.5 -100q102 -98 102 -243.5t-102.5 -244t-249.5 -98.5t-249.5 98.5t-102.5 243.5zM1382 492v157h656v-157h-656zM1559 1105.5q0 -65.5 43 -109.5 t106 -44q66 0 108 44t42 109.5t-42 110t-108 44.5q-63 0 -106 -44.5t-43 -110z" />
<glyph unicode="&#x25fc;" horiz-adv-x="983" d="M0 0v983h983v-983h-983z" />
</font>
</defs>
</svg>
