<?xml version="1.0" encoding="UTF-8" standalone="no"?>
<svg width="101px" height="100px" viewBox="0 0 101 100" version="1.1" xmlns="http://www.w3.org/2000/svg" xmlns:xlink="http://www.w3.org/1999/xlink" xmlns:sketch="http://www.bohemiancoding.com/sketch/ns">
    <!-- Generator: Sketch 3.2.1 (9971) - http://www.bohemiancoding.com/sketch -->
    <title>Slice 11</title>
    <desc>Created with Sketch.</desc>
    <defs></defs>
    <g id="Page-1" stroke="none" stroke-width="1" fill="none" fill-rule="evenodd" sketch:type="MSPage">
        <path d="M97.517254,31.8919695 C102.484504,45.0605756 102.137616,57.8891922 96.4814065,70.3682421 C92.4777354,79.2893741 86.3011935,86.4530958 77.9517808,91.8737729 C69.6023681,97.29445 60.4580027,100 50.5235024,100 C43.4845572,100 36.6527815,98.5586362 30.0281754,95.6806972 C17.3282031,90.054111 8.49700089,80.7977781 3.52975074,67.9021213 C-1.43749941,55.0112532 -1.16287937,42.2496768 4.35842875,29.6317579 C8.35728192,20.5765455 14.572367,13.3745152 22.9892302,8.02566681 C31.4060935,2.67681846 40.5841842,0 50.5235024,0 C57.4227286,0 64.2545042,1.37432361 71.0188294,4.11818225 C83.7139837,9.87884882 92.5500039,19.1351817 97.517254,31.8919695 L97.517254,31.8919695 L97.517254,31.8919695 Z M51.1450109,56.993727 L51.9736889,57.4055452 C57.769617,60.0153235 63.4932768,62.0025858 69.1543038,63.3721209 L69.9829818,63.57803 L70.1901513,62.9650912 C71.1537304,61.044869 71.7077884,59.8764545 71.8475074,59.4646363 C76.9496586,48.3551214 78.9539031,37.7915051 77.850605,27.7785759 C77.1568281,21.1942729 75.2923026,16.3961117 72.2618464,13.3745152 L71.0188294,12.1390605 L51.1450109,56.993727 L51.1450109,56.993727 Z M44.6215805,18.1056362 C38.2041439,24.0051717 32.9959989,31.4801513 28.9923279,40.5353637 C28.9923279,40.6742326 28.9586026,40.8131016 28.8911521,40.9471819 C28.8188836,41.0860509 28.7851584,41.2249198 28.7851584,41.3590001 L28.1636499,42.5944548 L28.7851584,43.2121822 C33.7572264,47.1914955 38.7919271,50.615333 43.8988962,53.4980606 L44.9347437,54.115788 L64.1870537,10.9036058 L64.6013927,9.4670306 L62.9440367,9.26112149 C57.1481085,9.26112149 51.0390172,12.2108892 44.6215805,18.1056362 L44.6215805,18.1056362 Z M20.3008446,44.4428482 L19.8865056,43.8251209 C16.7066946,40.8131016 14.018309,37.5855959 11.8117129,34.1569698 L10.5686959,32.5096969 L9.9471874,34.3628789 C7.32625231,40.9471819 6.43012376,47.7709141 7.25880177,54.8340756 C8.08266188,61.9020256 10.4964275,68.3857683 14.5000985,74.2805153 L16.9861326,77.7761816 L16.3646241,72.8391515 C15.3962271,64.6075755 16.6392441,55.3512426 20.0936751,45.0605756 L20.3008446,44.4428482 L20.3008446,44.4428482 Z M21.9533827,36.42197 L22.9892302,37.6526361 L23.6107387,36.2160609 C29.1272289,24.278121 36.3058931,15.2276972 45.1419132,9.05521237 L48.6589769,6.58430302 L44.3132352,7.20203036 C32.027602,8.84930326 22.2280027,14.7488388 14.9144375,24.8958483 L14.707268,25.5135756 L14.9144375,25.9253939 C16.7066946,29.6317579 19.0578276,33.1274242 21.9533827,36.42197 L21.9533827,36.42197 L21.9533827,36.42197 Z M42.2415402,60.2882728 L41.4128622,59.6705454 C35.8915541,56.6537375 31.1314734,53.4980606 27.1278024,50.2035148 L25.8896032,49.384667 L25.2680947,50.8212422 C23.0566808,58.6409999 22.2954533,65.77599 22.9892302,72.2214241 C23.8179082,78.8057271 25.7498843,83.6086769 28.7851584,86.6254848 L29.8210059,87.8609395 L42.2415402,60.2882728 L42.2415402,60.2882728 Z M52.0748647,85.2894699 C56.9746643,81.789015 61.4938502,77.0243739 65.6372402,70.9859694 L66.2587487,69.7553034 L65.0157317,69.3434851 C60.0484816,67.9739501 54.8017935,66.0489393 49.2804854,63.57803 L48.2446379,63.1710003 L36.6527815,89.0963942 L36.2384425,90.5329694 L38.1029681,90.5329694 C42.5161602,90.5329694 47.1750651,88.7851362 52.0748647,85.2894699 L52.0748647,85.2894699 Z M87.3707663,73.2509697 L85.5110587,73.0450606 C80.5389906,72.499162 76.7424891,71.9484748 74.121554,71.3977877 L73.2976939,71.3977877 L72.8833549,72.015515 C68.0510058,79.8352727 62.3899787,86.1466264 55.9050915,90.9447876 L52.3880279,93.415697 L56.7337695,92.7979696 C69.1543038,91.0166164 78.9539031,84.9782119 86.1325672,74.6923335 L87.3707663,73.2509697 L87.3707663,73.2509697 Z M91.0998173,34.3628789 C89.7170814,31.0683331 88.1994443,28.1903941 86.5469062,25.7194847 L84.0608722,22.2238184 L84.6823807,27.1608485 C85.7856787,38.1362831 83.6465332,49.7964852 78.264944,62.1414548 C77.9855061,62.6873533 77.7783366,63.0321314 77.6434355,63.1710003 L76.8147575,65.2253029 L78.0577745,65.431212 C82.6106857,66.1207681 86.6143567,66.4607576 90.0639698,66.4607576 L90.6854783,66.6666667 L91.0998173,65.8430302 C95.0986705,55.4182828 95.0986705,44.9264952 91.0998173,34.3628789 L91.0998173,34.3628789 L91.0998173,34.3628789 Z" id="Shape" fill="#000000" sketch:type="MSShapeGroup"></path>
    </g>
</svg>