<?xml version="1.0" encoding="UTF-8" standalone="no"?>
<svg width="128px" height="100px" viewBox="0 0 128 100" version="1.1" xmlns="http://www.w3.org/2000/svg" xmlns:xlink="http://www.w3.org/1999/xlink" xmlns:sketch="http://www.bohemiancoding.com/sketch/ns">
    <!-- Generator: Sketch 3.2.1 (9971) - http://www.bohemiancoding.com/sketch -->
    <title>Slice 8</title>
    <desc>Created with Sketch.</desc>
    <defs></defs>
    <g id="Page-1" stroke="none" stroke-width="1" fill="none" fill-rule="evenodd" sketch:type="MSPage">
        <path d="M104.500966,87.8389626 L104.500966,100 L0,100 L0,87.8389626 C0,82.2184255 4.08275862,77.3382398 12.2482759,73.1984054 C12.9147586,73.0363166 17.5801379,70.9685898 26.2488276,66.995225 C34.9131034,63.0262409 39.5828966,60.8796601 40.2493793,60.546721 L40.2493793,52.3590485 L39.9977931,51.6143164 L39.9977931,50.61988 L39.2518621,48.3856836 C38.912,47.0670697 38.5809655,45.9893985 38.249931,45.1614316 C37.0802759,42.6819118 36.0827586,39.7862181 35.2485517,36.4787313 C34.4143448,32.8383055 33.9994483,29.3643492 33.9994483,26.0568625 C33.9994483,21.426381 34.4982069,17.3697814 35.5001379,13.8958251 C36.6653793,10.4218688 37.9983448,7.78026022 39.4990345,5.95785692 C40.832,3.97336487 42.752,2.40066588 45.2502069,1.24414071 C47.081931,0.416173829 49.5006897,0 52.502069,0 C55.4990345,0 57.9133793,0.416173829 59.7495172,1.24414071 C61.7489655,2.07210759 63.6645517,3.56157182 65.5006897,5.70815263 C67.1646897,7.53055592 68.502069,10.2597801 69.4995862,13.8958251 C70.5015172,17.2076926 71.0002759,21.2599115 71.0002759,26.0568625 C71.0002759,29.1978797 70.5809655,32.592982 69.7511724,36.229027 C68.9125517,39.5408946 67.9150345,42.4322075 66.7497931,44.9117273 C66.582069,45.4111359 66.3746207,46.0726333 66.1230345,46.8962194 C65.8758621,47.728567 65.7478621,48.2235949 65.7478621,48.3856836 C65.5801379,48.7186227 65.4124138,49.1742235 65.2491034,49.7524861 C65.0813793,50.3351295 65.001931,50.7074955 65.001931,50.8695843 C64.8342069,51.5310816 64.7503448,52.192579 64.7503448,52.8540763 L64.7503448,61.0417488 C65.4124138,61.3746879 70.5809655,63.6877382 80.2515862,67.9896614 C89.9133793,72.2915845 94.998069,74.5257809 95.5012414,74.6878696 C101.499586,77.1717703 104.500966,81.5569282 104.500966,87.8389626 L104.500966,87.8389626 L104.500966,87.8389626 Z M122.001655,57.0727647 C123.162483,57.7342621 124.455724,58.934595 125.876966,60.6693827 C127.289379,62.4041705 128,64.1871468 128,66.0051693 L128,72.7033776 L101.751172,72.7033776 C96.2515862,68.5723047 90.2885517,65.0107329 83.8753103,62.0361852 C77.4576552,59.0572568 73.2513103,56.6609717 71.2518621,54.8385684 L76.7514483,50.8695843 C80.4148966,48.2235949 82.4143448,46.8173654 82.7497931,46.6508959 L82.7497931,40.9427432 C82.7497931,40.4477154 82.665931,40.0359224 82.4982069,39.7029833 C82.3304828,39.5408946 82.2068966,39.2473825 82.1230345,38.8355894 C82.0391724,38.4237964 81.9994483,38.1302843 81.9994483,37.9638148 C81.8317241,37.801726 81.7081379,37.468787 81.6242759,36.9737591 C81.5404138,36.4787313 81.5006897,36.0669383 81.5006897,35.7339992 C80.4987586,34.0824462 79.7484138,32.0935734 79.2496552,29.7761423 C78.7508966,27.463092 78.4993103,24.9791913 78.4993103,22.3332019 C78.4993103,18.6971569 78.8303448,15.8803172 79.5012414,13.8958251 C80,11.7492443 80.9136552,9.84360626 82.2510345,8.19205327 C83.4118621,6.54050028 84.7492414,5.45844833 86.249931,4.96342051 C87.5828966,4.30630394 89.3307586,3.97336487 91.497931,3.97336487 C93.334069,3.97336487 94.998069,4.30630394 96.4987586,4.96342051 C97.5006897,5.29635957 98.8336552,6.29079599 100.502069,7.94234897 C101.830621,9.59828274 102.74869,11.49954 103.251862,13.6505016 C103.913931,15.8014632 104.249379,18.6971569 104.249379,22.3332019 C104.249379,24.9791913 103.997793,27.3798572 103.499034,29.5308188 C103.163586,31.0159022 102.501517,33.0880098 101.499586,35.7339992 L100.749241,37.9638148 C100.413793,38.9582512 100.250483,39.6197485 100.250483,39.9526876 C100.082759,40.2856267 99.9988966,40.6930389 99.9988966,41.1924475 L99.9988966,46.8962194 C100.329931,47.0670697 103.499034,48.5127262 109.501793,51.2419503 C115.500138,53.9711745 118.664828,55.4212117 119.000276,55.5833005 C119.830069,55.9162395 120.832,56.4112674 122.001655,57.0727647 L122.001655,57.0727647 Z" id="Shape" fill="#000000" sketch:type="MSShapeGroup"></path>
    </g>
</svg>