<?xml version="1.0" encoding="UTF-8" standalone="no"?>
<svg width="145px" height="100px" viewBox="0 0 145 100" version="1.1" xmlns="http://www.w3.org/2000/svg" xmlns:xlink="http://www.w3.org/1999/xlink" xmlns:sketch="http://www.bohemiancoding.com/sketch/ns">
    <!-- Generator: Sketch 3.2.1 (9971) - http://www.bohemiancoding.com/sketch -->
    <title>Slice 7</title>
    <desc>Created with Sketch.</desc>
    <defs></defs>
    <g id="Page-1" stroke="none" stroke-width="1" fill="none" fill-rule="evenodd" sketch:type="MSPage">
        <path d="M0,38.6992575 L42.7653333,38.6992575 L42.7653333,0 L0,0 L0,38.6992575 L0,38.6992575 Z M0,100 L42.7653333,100 L42.7653333,46.6107415 L0,46.6107415 L0,100 L0,100 Z M51.2575,60.7366696 L93.7425,60.7366696 L93.7425,0 L51.2575,0 L51.2575,60.7366696 L51.2575,60.7366696 Z M51.2575,100 L93.7425,100 L93.7425,68.6433324 L51.2575,68.6433324 L51.2575,100 L51.2575,100 Z M102.519833,27.4033362 L145,27.4033362 L145,0 L102.519833,0 L102.519833,27.4033362 L102.519833,27.4033362 Z M102.519833,100 L145,100 L145,35.5944461 L102.519833,35.5944461 L102.519833,100 L102.519833,100 Z" id="Shape" fill="#000000" sketch:type="MSShapeGroup"></path>
    </g>
</svg>